<svg xmlns="http://www.w3.org/2000/svg" width="224px" height="216px" viewBox="0 0 224 216">
<path fill="#00A9E0" d="M112.383,208c-14.523,0-25.02-5.13-35.098-17.154c-0.25-0.298-0.304-0.713-0.14-1.065
c0.165-0.353,0.518-0.577,0.906-0.577h5.788c0.424,0,0.802,0.268,0.943,0.667c1.236,3.501,11.391,9.967,22.609,9.967
c0,0,0,0,0.001,0c1.967,0,3.87-0.2,5.695-0.6c-11.269-0.685-18.521-2.489-25.76-8.252c-0.333-0.265-0.461-0.711-0.321-1.112
c0.14-0.401,0.519-0.67,0.944-0.67h6.293c0.071,0,0.141,0.008,0.21,0.022c4.441,0.956,8.593,1.44,12.339,1.44
c8.473,0,14.638-2.416,18.324-7.182c4.653-6.015,5.289-15.707,1.891-28.81c-4.642-15.505-10.465-24.261-16.096-32.729
c-5.287-7.949-10.28-15.457-13.259-27.581c-3.467-14.094-6.952-81.18-7.099-84.029c-0.015-0.283,0.091-0.558,0.292-0.758
l9.284-9.285C100.318,0.105,100.573,0,100.838,0h8.672c0.265,0,0.52,0.105,0.707,0.293l9.287,9.285
c0.204,0.204,0.311,0.487,0.291,0.775c-0.052,0.763-5.131,76.47-0.075,88.576c1.178,2.813,3.003,6.87,5.117,11.566
c7.278,16.175,18.278,40.617,21.062,54.567c2.532,12.656,0.424,23.899-5.936,31.657C133.913,204.1,124.376,208,112.383,208z
M80.237,191.203C89.466,201.552,99.191,206,112.383,206c11.374,0,20.376-3.647,26.033-10.548
c5.973-7.286,7.934-17.939,5.521-29.998c-2.739-13.728-13.684-38.046-20.925-54.138c-2.119-4.71-3.95-8.778-5.139-11.616
c-5.083-12.172-0.569-82.076-0.105-89.029L109.096,2h-7.844l-8.676,8.677c0.315,5.979,3.743,69.888,7.021,83.211
c2.895,11.785,7.794,19.151,12.981,26.951c5.447,8.189,11.621,17.472,16.357,33.298c3.572,13.769,2.817,24.042-2.234,30.571
c-4.085,5.28-10.783,7.958-19.906,7.958c-3.858,0-8.116-0.492-12.656-1.463H91c6.38,4.284,13.472,5.817,27.516,6.278
c0.463,0.015,0.854,0.346,0.947,0.8c0.092,0.454-0.141,0.912-0.561,1.106c-3.515,1.625-7.387,2.449-11.51,2.449c0,0,0,0-0.001,0
c-11.129,0-21.828-6.203-24.196-10.634H80.237z"/>
<path fill="#00A9E0" d="M194.842,23.516c0-1.989-1.61-3.607-3.591-3.607h-2.464V3.603c0-1.986-1.61-3.603-3.59-3.603h-10.395
c-1.979,0-3.59,1.616-3.59,3.603v16.306h-2.464c-1.98,0-3.591,1.618-3.591,3.58l-1.748,64.07c0,1.986,1.61,3.602,3.589,3.602h4.214
v87.282c0,1.979,1.61,3.59,3.59,3.59h1.397l0.997,8.011c-0.546,0.446-0.921,1.256-1.573,2.714c-0.014,0.031-0.026,0.064-0.037,0.098
c-0.037,0.113-0.909,2.818-0.909,5.969c0,3.154,0.874,5.794,0.911,5.904c0.011,0.031,0.023,0.063,0.037,0.093
c1.188,2.632,1.436,3.18,3.517,3.18h1.715c2.085,0,2.329-0.549,3.503-3.184c0.015-0.033,0.028-0.067,0.039-0.102
c0.038-0.117,0.923-2.909,0.923-5.985c0-3.052-0.888-5.766-0.96-5.969c-0.645-1.46-1.016-2.271-1.56-2.717l0.997-8.012h1.397
c1.979,0,3.59-1.61,3.59-3.59V91.16h4.18c1.998,0,3.623-1.616,3.623-3.629L194.842,23.516z M173.213,3.603
c0-0.884,0.713-1.603,1.59-1.603h10.395c0.877,0,1.59,0.719,1.59,1.603v16.306h-13.574V3.603z M183.322,198.729
c0,2.549-0.701,4.961-0.813,5.327c-0.43,0.964-0.798,1.787-0.951,1.911C181.473,206,181.146,206,180.857,206h-1.715
c-0.289,0-0.616,0-0.688-0.024c-0.171-0.132-0.547-0.959-0.983-1.927c-0.107-0.339-0.794-2.616-0.794-5.226
c0-2.611,0.688-4.95,0.796-5.303c0.438-0.978,0.813-1.813,0.969-1.938c0.086-0.032,0.412-0.032,0.7-0.032h1.715
c0.287,0,0.612,0,0.681,0.021c0.174,0.138,0.554,0.999,0.96,1.907C182.506,193.505,183.322,195.997,183.322,198.729z
M180.85,189.551h-1.699l-0.936-7.519h3.57L180.85,189.551z M186.787,178.442c0,0.877-0.713,1.59-1.59,1.59h-10.395
c-0.877,0-1.59-0.713-1.59-1.59V91.16h13.574V178.442z M192.967,89.16h-25.968c-0.876,0-1.589-0.718-1.589-1.574l1.748-64.07
c0-0.886,0.714-1.607,1.591-1.607h22.502c0.877,0,1.591,0.721,1.591,1.635l1.748,64.016C194.59,88.442,193.861,89.16,192.967,89.16z"/>
<path fill="#00A9E0" d="M43.995,154c-0.081,0-0.162-0.01-0.244-0.03C42.944,153.768,24,148.875,24,137.238
c0-6.343,9.588-7.608,19.739-8.948C52.717,127.105,62,125.881,62,121.14c0-4.756-9.328-6.122-18.348-7.443
C33.545,112.216,24,110.817,24,104.569c0-6.267,9.59-7.615,19.744-9.042C52.719,94.266,62,92.962,62,88.299
c0-4.605-9.16-5.812-18.018-6.979C34.158,80.025,24,78.687,24,72.196c0-6.513,10.26-8.044,20.183-9.524
C52.942,61.365,62,60.013,62,55.604c0-4.437-9.16-5.682-18.019-6.886C33.706,47.321,24,46.001,24,39.687
c0-6.288,9.644-7.621,19.854-9.031C52.775,29.424,62,28.149,62,23.593c0-9.978-18.113-15.58-18.296-15.636
c-0.528-0.16-0.827-0.718-0.667-1.247c0.16-0.528,0.717-0.828,1.247-0.667C45.089,6.287,64,12.147,64,23.593
c0,6.299-9.653,7.633-19.873,9.044C35.215,33.869,26,35.142,26,39.687c0,4.568,9.278,5.829,18.251,7.049
C54.407,48.117,64,49.42,64,55.604c0,6.133-9.482,7.548-19.522,9.046C35.394,66.005,26,67.407,26,72.196
c0,4.737,9.274,5.958,18.243,7.141C54.403,80.675,64,81.94,64,88.299c0,6.402-10.156,7.829-19.978,9.209
C35.162,98.753,26,100.04,26,104.569c0,4.52,9.121,5.856,17.941,7.149C53.803,113.162,64,114.655,64,121.14
c0,6.494-10.167,7.836-19.999,9.134C35.151,131.441,26,132.648,26,137.238c0,10.081,18.056,14.746,18.238,14.792
c0.535,0.135,0.86,0.678,0.726,1.214C44.85,153.697,44.442,154,43.995,154z"/>
<path fill="#F8485E" d="M24,170c12.131,0,22,9.869,22,22s-9.869,22-22,22s-22-9.869-22-22S11.869,170,24,170 M24,168
c-13.254,0-24,10.748-24,24c0,13.254,10.746,24,24,24s24-10.746,24-24C48,178.748,37.254,168,24,168L24,168z"/>
<path fill="#F8485E" d="M17.746,185.384c0.393-0.83,0.928-1.531,1.607-2.103c0.554-0.465,1.183-0.817,1.889-1.059
c0.705-0.241,1.442-0.361,2.21-0.361c0.821,0,1.598,0.144,2.33,0.429c0.732,0.286,1.366,0.696,1.902,1.232
c0.607,0.571,1.085,1.25,1.433,2.035c0.348,0.786,0.522,1.607,0.522,2.465c0,1.16-0.21,2.147-0.63,2.959
c-0.419,0.813-1.121,1.647-2.103,2.505l-6.83,6.161h9.321v1.901H17.022l0.027-1.901l8.732-7.795
c0.696-0.625,1.179-1.236,1.446-1.835c0.268-0.598,0.402-1.272,0.402-2.022c0-0.606-0.125-1.188-0.375-1.741
c-0.25-0.553-0.598-1.026-1.044-1.419c-0.768-0.715-1.706-1.072-2.813-1.072c-1.018,0-1.92,0.322-2.706,0.965
c-0.464,0.393-0.835,0.88-1.111,1.46c-0.277,0.58-0.416,1.183-0.416,1.808h-1.982C17.165,187.085,17.353,186.214,17.746,185.384z"/>
</svg>
