<svg xmlns="http://www.w3.org/2000/svg" width="224px" height="216px" viewBox="0 0 224 216">
<path fill="#00A9E0" d="M174.761,37.892c1.854-0.826,3.153-2.671,3.153-4.819V13.824C177.914,6.202,171.65,0,163.951,0H60.07
c-7.711,0-13.984,6.202-13.984,13.824v19.249c0,2.136,1.289,3.971,3.131,4.804C45.624,41.211,37.43,51.11,37.43,72.082v91.504
c0,0.553,0.448,1,1,1s1-0.447,1-1V72.082c0-23.239,10.616-32.408,12.313-33.723h120.516c1.726,1.396,12.313,10.902,12.313,33.723
v91.504c0,23.387-18.968,42.414-42.283,42.414H81.712c-9.903,0-19.531-3.5-27.11-9.854c-0.424-0.356-1.055-0.299-1.409,0.124
c-0.355,0.423-0.3,1.054,0.124,1.409C61.256,204.334,71.34,208,81.712,208h60.575c24.418,0,44.283-19.924,44.283-44.414V72.082
C186.57,51.374,178.32,41.283,174.761,37.892z M51.413,36.359h-0.002c-1.833,0-3.325-1.474-3.325-3.286V13.824
C48.086,7.304,53.462,2,60.07,2h103.881c6.597,0,11.963,5.304,11.963,11.824v19.249c0,1.812-1.486,3.286-3.313,3.286h-0.002H51.413z"/>
<path fill="#00A9E0" d="M112.008,33.156c-0.552,0-1-0.448-1-1V6.188c0-0.552,0.448-1,1-1s1,0.448,1,1v25.969
C113.008,32.708,112.56,33.156,112.008,33.156z"/>
<path fill="#00A9E0" d="M117.195,33.156c-0.553,0-1-0.448-1-1V6.188c0-0.552,0.447-1,1-1s1,0.448,1,1v25.969
C118.195,32.708,117.748,33.156,117.195,33.156z"/>
<path fill="#00A9E0" d="M122.383,33.156c-0.553,0-1-0.448-1-1V6.188c0-0.552,0.447-1,1-1s1,0.448,1,1v25.969
C123.383,32.708,122.936,33.156,122.383,33.156z"/>
<path fill="#00A9E0" d="M127.591,33.156c-0.553,0-1-0.448-1-1V6.188c0-0.552,0.447-1,1-1s1,0.448,1,1v25.969
C128.591,32.708,128.144,33.156,127.591,33.156z"/>
<path fill="#00A9E0" d="M132.789,33.156c-0.553,0-1-0.448-1-1V6.188c0-0.552,0.447-1,1-1s1,0.448,1,1v25.969
C133.789,32.708,133.342,33.156,132.789,33.156z"/>
<path fill="#00A9E0" d="M137.977,33.156c-0.553,0-1-0.448-1-1V6.188c0-0.552,0.447-1,1-1s1,0.448,1,1v25.969
C138.977,32.708,138.529,33.156,137.977,33.156z"/>
<path fill="#00A9E0" d="M143.164,33.156c-0.553,0-1-0.448-1-1V6.188c0-0.552,0.447-1,1-1s1,0.448,1,1v25.969
C144.164,32.708,143.717,33.156,143.164,33.156z"/>
<path fill="#00A9E0" d="M148.352,33.156c-0.553,0-1-0.448-1-1V6.188c0-0.552,0.447-1,1-1s1,0.448,1,1v25.969
C149.352,32.708,148.904,33.156,148.352,33.156z"/>
<path fill="#00A9E0" d="M153.544,33.156c-0.553,0-1-0.448-1-1V6.188c0-0.552,0.447-1,1-1s1,0.448,1,1v25.969
C154.544,32.708,154.097,33.156,153.544,33.156z"/>
<path fill="#00A9E0" d="M158.758,33.156c-0.553,0-1-0.448-1-1V6.188c0-0.552,0.447-1,1-1s1,0.448,1,1v25.969
C159.758,32.708,159.311,33.156,158.758,33.156z"/>
<path fill="#00A9E0" d="M163.945,33.156c-0.553,0-1-0.448-1-1V6.188c0-0.552,0.447-1,1-1s1,0.448,1,1v25.969
C164.945,32.708,164.498,33.156,163.945,33.156z"/>
<path fill="#00A9E0" d="M169.133,33.156c-0.553,0-1-0.448-1-1V6.188c0-0.552,0.447-1,1-1s1,0.448,1,1v25.969
C170.133,32.708,169.686,33.156,169.133,33.156z"/>
<path fill="#00A9E0" d="M106.82,33.156c-0.552,0-1-0.448-1-1V6.188c0-0.552,0.448-1,1-1s1,0.448,1,1v25.969
C107.82,32.708,107.373,33.156,106.82,33.156z"/>
<path fill="#00A9E0" d="M101.617,33.156c-0.552,0-1-0.448-1-1V6.188c0-0.552,0.448-1,1-1s1,0.448,1,1v25.969
C102.617,32.708,102.169,33.156,101.617,33.156z"/>
<path fill="#00A9E0" d="M96.43,33.156c-0.552,0-1-0.448-1-1V6.188c0-0.552,0.448-1,1-1s1,0.448,1,1v25.969
C97.43,32.708,96.982,33.156,96.43,33.156z"/>
<path fill="#00A9E0" d="M91.229,33.156c-0.552,0-1-0.448-1-1V6.188c0-0.552,0.448-1,1-1s1,0.448,1,1v25.969
C92.229,32.708,91.782,33.156,91.229,33.156z"/>
<path fill="#00A9E0" d="M86.039,33.156c-0.552,0-1-0.448-1-1V6.188c0-0.552,0.448-1,1-1s1,0.448,1,1v25.969
C87.039,32.708,86.591,33.156,86.039,33.156z"/>
<path fill="#00A9E0" d="M80.852,33.156c-0.552,0-1-0.448-1-1V6.188c0-0.552,0.448-1,1-1s1,0.448,1,1v25.969
C81.852,32.708,81.404,33.156,80.852,33.156z"/>
<path fill="#00A9E0" d="M75.648,33.156c-0.552,0-1-0.448-1-1V6.188c0-0.552,0.448-1,1-1s1,0.448,1,1v25.969
C76.648,32.708,76.201,33.156,75.648,33.156z"/>
<path fill="#00A9E0" d="M70.461,33.156c-0.552,0-1-0.448-1-1V6.188c0-0.552,0.448-1,1-1s1,0.448,1,1v25.969
C71.461,32.708,71.013,33.156,70.461,33.156z"/>
<path fill="#00A9E0" d="M65.273,33.156c-0.552,0-1-0.448-1-1V6.188c0-0.552,0.448-1,1-1s1,0.448,1,1v25.969
C66.273,32.708,65.826,33.156,65.273,33.156z"/>
<path fill="#00A9E0" d="M60.07,33.156c-0.552,0-1-0.448-1-1V6.188c0-0.552,0.448-1,1-1s1,0.448,1,1v25.969
C61.07,32.708,60.623,33.156,60.07,33.156z"/>
<path fill="#00A9E0" d="M54.883,33.156c-0.552,0-1-0.448-1-1V6.188c0-0.552,0.448-1,1-1s1,0.448,1,1v25.969
C55.883,32.708,55.435,33.156,54.883,33.156z"/>
<path fill="#F8485E" d="M167.238,140.649c-7.631-1.871-10.115-4.356-13.261-7.504c-1.714-1.715-3.656-3.658-6.679-5.68
c-7.738-5.129-12.606-5.857-18.786-2.69c-1.521-2.454-3.252-4.768-5.108-6.754c1.336-1.729,2.999-3.247,4.77-4.83
c4.169-3.728,8.479-7.582,8.479-14.749c0-10.375-7.378-16.059-7.691-16.295c-0.442-0.334-1.067-0.245-1.401,0.196
c-0.332,0.441-0.244,1.068,0.196,1.4c0.069,0.052,6.896,5.31,6.896,14.699c0,6.272-3.794,9.665-7.812,13.258
c-1.697,1.519-3.424,3.095-4.851,4.889c-0.883-0.834-1.787-1.582-2.704-2.234c0.126-0.563,0.213-1.137,0.213-1.73
c0-2.43-1.171-4.587-2.974-5.953c0.483-1.73,0.825-3.881,0.825-4.872c0-0.08-0.485-8.021-3.164-8.021
c-0.998,0-1.691,1.1-2.169,2.484c-0.478-1.384-1.171-2.484-2.169-2.484c-2.686,0-3.172,7.941-3.172,8.021
c0,0.916,0.305,3.07,0.814,4.882c-1.796,1.367-2.963,3.52-2.963,5.943c0,0.604,0.089,1.176,0.219,1.729
c-0.923,0.657-1.834,1.411-2.723,2.252c-1.429-1.801-3.16-3.382-4.86-4.904c-4.015-3.592-7.807-6.985-7.807-13.259
c0-9.351,6.825-14.647,6.894-14.7c0.439-0.334,0.526-0.961,0.193-1.4c-0.333-0.44-0.959-0.528-1.399-0.195
c-0.313,0.237-7.688,5.92-7.688,16.295c0,7.167,4.307,11.021,8.473,14.75c1.776,1.589,3.444,3.11,4.78,4.847
c-1.854,1.985-3.582,4.298-5.1,6.748c-6.207-3.186-11.073-2.463-18.789,2.681c-3.028,2.021-4.976,3.966-6.694,5.683
c-3.148,3.145-5.635,5.629-13.265,7.499c-0.536,0.132-0.864,0.674-0.733,1.21c0.112,0.456,0.521,0.762,0.97,0.762
c0.079,0,0.159-0.009,0.239-0.028c8.171-2.004,10.966-4.796,14.202-8.027c1.733-1.732,3.526-3.522,6.39-5.434
c7.835-5.223,11.807-5.13,16.659-2.629c-1.249,2.21-2.311,4.489-3.135,6.705c-6.968,1.797-8.822,3.798-11.823,7.063
c-0.513,0.558-1.064,1.158-1.685,1.803c-4.601,4.744-8.289,8.114-17.286,11.596c-0.515,0.199-0.771,0.778-0.572,1.294
c0.153,0.396,0.532,0.639,0.933,0.639c0.12,0,0.242-0.021,0.361-0.067c9.356-3.62,13.362-7.286,18.003-12.071
c0.635-0.66,1.196-1.271,1.718-1.839c2.731-2.971,4.242-4.6,9.583-6.136c-0.703,2.34-1.098,4.551-1.098,6.457
c0,0.774,0.032,1.788,0.132,2.955c-6.149,1.404-7.758,6.396-8.833,9.757c-0.162,0.508-0.316,0.99-0.477,1.436
c-0.436,1.215-0.672,2.779-0.947,4.59c-0.543,3.587-1.287,8.5-4.12,13.908c-0.256,0.489-0.067,1.094,0.422,1.35
c0.148,0.078,0.307,0.114,0.463,0.114c0.36,0,0.708-0.195,0.887-0.536c2.989-5.705,3.762-10.81,4.326-14.536
c0.259-1.708,0.482-3.183,0.851-4.212c0.168-0.464,0.33-0.971,0.5-1.504c1.026-3.211,2.289-7.158,7.158-8.375
c1.123,7.791,5.557,19.692,22.166,19.692c14.311,0,20.678-9.453,22.166-19.689c4.858,1.228,6.118,5.191,7.144,8.416
c0.163,0.516,0.319,1.006,0.48,1.458c0.371,1.031,0.593,2.506,0.849,4.214c0.56,3.728,1.325,8.832,4.334,14.539
c0.18,0.34,0.526,0.533,0.886,0.533c0.157,0,0.316-0.037,0.466-0.115c0.488-0.258,0.676-0.862,0.418-1.352
c-2.851-5.405-3.587-10.316-4.125-13.902c-0.272-1.813-0.507-3.378-0.944-4.592c-0.153-0.43-0.301-0.897-0.458-1.389
c-1.072-3.376-2.679-8.387-8.82-9.801c0.083-0.987,0.128-1.976,0.128-2.959c0-1.906-0.395-4.116-1.097-6.454
c5.325,1.537,6.843,3.17,9.588,6.146c0.521,0.564,1.08,1.171,1.712,1.827c3.892,4.019,7.915,8.174,17.975,12.069
c0.119,0.046,0.241,0.067,0.361,0.067c0.4,0,0.779-0.242,0.933-0.639c0.199-0.516-0.057-1.095-0.571-1.294
c-9.65-3.736-13.347-7.554-17.259-11.593c-0.619-0.644-1.168-1.239-1.68-1.794c-3.015-3.271-4.878-5.273-11.827-7.073
c-0.825-2.221-1.89-4.505-3.142-6.72c4.828-2.483,8.801-2.566,16.658,2.642c2.855,1.909,4.644,3.698,6.373,5.429
c3.232,3.234,6.024,6.028,14.198,8.033c0.08,0.02,0.16,0.028,0.239,0.028c0.449,0,0.858-0.306,0.971-0.762
C168.103,141.323,167.774,140.781,167.238,140.649z M121.808,133.154c0,5.42-4.393,9.83-9.791,9.83c-5.416,0-9.821-4.41-9.821-9.83
c0-6.139,4.93-19.53,9.821-19.53C116.893,113.624,121.808,127.016,121.808,133.154z M114.185,96.187
c0.567,1.278,1.166,4.349,1.166,5.612c0,0.662-0.242,2.338-0.627,3.862c-0.382-0.149-0.776-0.273-1.186-0.358
c-0.337-1.472-0.521-2.949-0.521-3.504C113.017,100.534,113.616,97.463,114.185,96.187z M108.676,101.799
c0-1.265,0.602-4.34,1.171-5.615c0.569,1.276,1.169,4.351,1.169,5.615c0,0.564-0.187,2.045-0.527,3.505
c-0.413,0.086-0.811,0.211-1.196,0.362C108.923,104.186,108.676,102.491,108.676,101.799z M106.527,112.624
c0-3.021,2.462-5.478,5.489-5.478c3.023,0,5.482,2.457,5.482,5.478c0,0.196-0.025,0.385-0.044,0.576
c-1.809-0.997-3.643-1.576-5.438-1.576c-1.798,0-3.634,0.58-5.444,1.578C106.553,113.011,106.527,112.823,106.527,112.624z
M112.017,164.584c-19.048,0-20.528-17.328-20.528-22.639c0-7.515,6.788-20.612,14.267-25.952c-3.498,5.15-5.56,13.474-5.56,17.161
c0,6.523,5.303,11.83,11.821,11.83c6.502,0,11.791-5.307,11.791-11.83c0-3.691-2.063-12.03-5.558-17.179
c1.1,0.782,2.183,1.737,3.233,2.813c0.024,0.021,0.038,0.049,0.064,0.067c0.001,0.001,0.003,0.001,0.005,0.002
c2.092,2.157,4.048,4.806,5.712,7.619c0.014,0.031,0.014,0.064,0.03,0.095c0.02,0.034,0.051,0.055,0.073,0.086
c3.105,5.303,5.171,11.144,5.171,15.287c0,0.899-0.046,2.147-0.208,3.593c-0.001,0.002-0.002,0.003-0.002,0.005
c0,0.003,0.001,0.005,0,0.008C131.527,152.645,127.827,164.584,112.017,164.584z"/>
<path fill="#F8485E" d="M24,170c12.131,0,22,9.869,22,22s-9.869,22-22,22s-22-9.869-22-22S11.869,170,24,170 M24,168
c-13.254,0-24,10.748-24,24c0,13.254,10.746,24,24,24s24-10.746,24-24C48,178.748,37.254,168,24,168L24,168z"/>
<path fill="#F8485E" d="M28.902,182.263v1.875h-8.384l-0.375,6.456c0.518-0.465,1.121-0.826,1.808-1.085s1.388-0.389,2.103-0.389
c0.786,0,1.549,0.139,2.291,0.415c0.741,0.277,1.397,0.675,1.969,1.192c0.678,0.607,1.196,1.321,1.553,2.143
s0.536,1.697,0.536,2.625c-0.018,0.857-0.197,1.684-0.536,2.478c-0.339,0.795-0.803,1.487-1.393,2.076
c-0.607,0.607-1.317,1.071-2.129,1.393c-0.813,0.321-1.674,0.482-2.585,0.482c-0.804,0-1.581-0.152-2.331-0.455
c-0.75-0.304-1.411-0.724-1.982-1.259c-0.893-0.821-1.509-1.84-1.848-3.054l1.875-0.509c0.25,0.91,0.705,1.643,1.366,2.196
c0.41,0.375,0.875,0.665,1.393,0.87c0.518,0.206,1.063,0.309,1.634,0.309c0.607,0,1.192-0.116,1.755-0.349
c0.563-0.231,1.049-0.554,1.459-0.964c0.429-0.429,0.759-0.915,0.991-1.46c0.232-0.545,0.348-1.13,0.348-1.755
c0-0.66-0.134-1.285-0.402-1.875c-0.268-0.589-0.634-1.089-1.098-1.5c-0.911-0.785-1.929-1.179-3.054-1.179
c-1.107,0-2.063,0.349-2.866,1.045c-0.429,0.375-0.777,0.786-1.045,1.232l-1.794-1.045l0.589-9.911H28.902z"/>
</svg>
