<svg xmlns="http://www.w3.org/2000/svg" width="224px" height="216px" viewBox="0 0 224 216">
<path fill="#00A9E0" d="M98.373,60.144c1.878,0,3.415,1.516,3.415,3.4v3.415c0,1.869-1.537,3.398-3.415,3.398H91.56
c-1.869,0-3.4-1.53-3.4-3.398v-3.415c0-1.884,1.531-3.4,3.4-3.4H98.373 M98.373,58.144H91.56c-2.978,0-5.4,2.422-5.4,5.4v3.415
c0,2.977,2.422,5.398,5.4,5.398h6.813c2.986,0,5.415-2.422,5.415-5.398v-3.415C103.788,60.566,101.358,58.144,98.373,58.144
L98.373,58.144z"/>
<path fill="#00A9E0" d="M98.373,89.083c1.878,0,3.415,1.529,3.415,3.407v3.425c0,1.87-1.537,3.396-3.415,3.396H91.56
c-1.869,0-3.4-1.526-3.4-3.396v-3.425c0-1.878,1.531-3.407,3.4-3.407H98.373 M98.373,87.083H91.56c-2.978,0-5.4,2.426-5.4,5.407
v3.425c0,2.976,2.422,5.396,5.4,5.396h6.813c2.986,0,5.415-2.42,5.415-5.396v-3.425C103.788,89.509,101.358,87.083,98.373,87.083
L98.373,87.083z"/>
<path fill="#00A9E0" d="M98.373,117.198c1.878,0,3.415,1.52,3.415,3.401v3.378c0,1.881-1.537,3.434-3.415,3.434H91.56
c-1.869,0-3.4-1.553-3.4-3.434V120.6c0-1.882,1.531-3.401,3.4-3.401H98.373 M98.373,115.198H91.56c-2.978,0-5.4,2.423-5.4,5.401
v3.378c0,2.996,2.422,5.434,5.4,5.434h6.813c2.986,0,5.415-2.438,5.415-5.434V120.6C103.788,117.621,101.358,115.198,98.373,115.198
L98.373,115.198z"/>
<path fill="#00A9E0" d="M98.373,146.128c1.878,0,3.415,1.511,3.415,3.401v3.432c0,1.864-1.537,3.38-3.415,3.38H91.56
c-1.869,0-3.4-1.516-3.4-3.38v-3.432c0-1.891,1.531-3.401,3.4-3.401H98.373 M98.373,144.128H91.56c-2.978,0-5.4,2.423-5.4,5.401
v3.432c0,2.967,2.422,5.38,5.4,5.38h6.813c2.986,0,5.415-2.413,5.415-5.38v-3.432C103.788,146.551,101.358,144.128,98.373,144.128
L98.373,144.128z"/>
<path fill="#00A9E0" d="M132.422,146.128c1.887,0,3.418,1.511,3.418,3.401v3.432c0,1.864-1.531,3.38-3.418,3.38h-6.798
c-1.887,0-3.411-1.516-3.411-3.38v-3.432c0-1.891,1.524-3.401,3.411-3.401H132.422 M132.422,144.128h-6.798
c-2.983,0-5.411,2.423-5.411,5.401v3.432c0,2.967,2.428,5.38,5.411,5.38h6.798c2.987,0,5.418-2.413,5.418-5.38v-3.432
C137.84,146.551,135.409,144.128,132.422,144.128L132.422,144.128z"/>
<path fill="#00A9E0" d="M132.422,117.198c1.887,0,3.418,1.52,3.418,3.401v3.378c0,1.881-1.531,3.434-3.418,3.434h-6.798
c-1.887,0-3.411-1.553-3.411-3.434V120.6c0-1.882,1.524-3.401,3.411-3.401H132.422 M132.422,115.198h-6.798
c-2.983,0-5.411,2.423-5.411,5.401v3.378c0,2.996,2.428,5.434,5.411,5.434h6.798c2.987,0,5.418-2.438,5.418-5.434V120.6
C137.84,117.621,135.409,115.198,132.422,115.198L132.422,115.198z"/>
<path fill="#00A9E0" d="M132.422,89.083c1.887,0,3.418,1.527,3.418,3.407v3.425c0,1.871-1.531,3.396-3.418,3.396h-6.798
c-1.887,0-3.411-1.525-3.411-3.396v-3.425c0-1.88,1.524-3.407,3.411-3.407H132.422 M132.422,87.083h-6.798
c-2.983,0-5.411,2.426-5.411,5.407v3.425c0,2.976,2.428,5.396,5.411,5.396h6.798c2.987,0,5.418-2.42,5.418-5.396v-3.425
C137.84,89.509,135.409,87.083,132.422,87.083L132.422,87.083z"/>
<path fill="#00A9E0" d="M132.422,60.144c1.887,0,3.418,1.513,3.418,3.4v3.415c0,1.87-1.531,3.398-3.418,3.398h-6.798
c-1.887,0-3.411-1.529-3.411-3.398v-3.415c0-1.887,1.524-3.4,3.411-3.4H132.422 M132.422,58.144h-6.798
c-2.983,0-5.411,2.422-5.411,5.4v3.415c0,2.977,2.428,5.398,5.411,5.398h6.798c2.987,0,5.418-2.422,5.418-5.398v-3.415
C137.84,60.566,135.409,58.144,132.422,58.144L132.422,58.144z"/>
<path fill="#00A9E0" d="M181.789,60.144c1.907,0,3.438,1.513,3.438,3.4v3.415c0,1.87-1.53,3.398-3.438,3.398h-6.76
c-1.899,0-3.43-1.529-3.43-3.398v-3.415c0-1.887,1.53-3.4,3.43-3.4H181.789 M181.789,58.144h-6.76c-2.994,0-5.43,2.422-5.43,5.4
v3.415c0,2.977,2.436,5.398,5.43,5.398h6.76c2.998,0,5.438-2.422,5.438-5.398v-3.415C187.227,60.566,184.787,58.144,181.789,58.144
L181.789,58.144z"/>
<path fill="#00A9E0" d="M181.789,89.083c1.907,0,3.438,1.527,3.438,3.407v3.425c0,1.871-1.53,3.396-3.438,3.396h-6.76
c-1.899,0-3.43-1.525-3.43-3.396v-3.425c0-1.88,1.53-3.407,3.43-3.407H181.789 M181.789,87.083h-6.76
c-2.994,0-5.43,2.426-5.43,5.407v3.425c0,2.976,2.436,5.396,5.43,5.396h6.76c2.998,0,5.438-2.42,5.438-5.396v-3.425
C187.227,89.509,184.787,87.083,181.789,87.083L181.789,87.083z"/>
<path fill="#00A9E0" d="M181.789,118.037c1.907,0,3.438,1.552,3.438,3.434v3.37c0,1.862-1.53,3.409-3.438,3.409h-6.76
c-1.899,0-3.43-1.547-3.43-3.409v-3.37c0-1.882,1.53-3.434,3.43-3.434H181.789 M181.789,116.037h-6.76
c-2.994,0-5.43,2.438-5.43,5.434v3.37c0,2.982,2.436,5.409,5.43,5.409h6.76c2.998,0,5.438-2.427,5.438-5.409v-3.37
C187.227,118.475,184.787,116.037,181.789,116.037L181.789,116.037z"/>
<path fill="#00A9E0" d="M181.789,146.128c1.907,0,3.438,1.511,3.438,3.401v3.432c0,1.864-1.53,3.38-3.438,3.38h-6.76
c-1.899,0-3.43-1.516-3.43-3.38v-3.432c0-1.891,1.53-3.401,3.43-3.401H181.789 M181.789,144.128h-6.76
c-2.994,0-5.43,2.423-5.43,5.401v3.432c0,2.967,2.436,5.38,5.43,5.38h6.76c2.998,0,5.438-2.413,5.438-5.38v-3.432
C187.227,146.551,184.787,144.128,181.789,144.128L181.789,144.128z"/>
<path fill="#00A9E0" d="M181.789,175.091c1.907,0,3.438,1.519,3.438,3.389v3.426c0,1.892-1.53,3.397-3.438,3.397h-6.76
c-1.899,0-3.43-1.506-3.43-3.397v-3.426c0-1.87,1.53-3.389,3.43-3.389H181.789 M181.789,173.091h-6.76
c-2.994,0-5.43,2.417-5.43,5.389v3.426c0,2.977,2.436,5.397,5.43,5.397h6.76c2.998,0,5.438-2.421,5.438-5.397v-3.426
C187.227,175.508,184.787,173.091,181.789,173.091L181.789,173.091z"/>
<path fill="#00A9E0" d="M49.001,60.144c1.871,0,3.4,1.513,3.4,3.4v3.415c0,1.87-1.529,3.398-3.4,3.398h-6.813
c-1.883,0-3.415-1.529-3.415-3.398v-3.415c0-1.887,1.532-3.4,3.415-3.4H49.001 M49.001,58.144h-6.813
c-2.986,0-5.415,2.422-5.415,5.4v3.415c0,2.977,2.429,5.398,5.415,5.398h6.813c2.978,0,5.4-2.422,5.4-5.398v-3.415
C54.401,60.566,51.979,58.144,49.001,58.144L49.001,58.144z"/>
<path fill="#00A9E0" d="M49.001,89.083c1.871,0,3.4,1.527,3.4,3.407v3.425c0,1.871-1.529,3.396-3.4,3.396h-6.813
c-1.883,0-3.415-1.525-3.415-3.396v-3.425c0-1.88,1.532-3.407,3.415-3.407H49.001 M49.001,87.083h-6.813
c-2.986,0-5.415,2.426-5.415,5.407v3.425c0,2.976,2.429,5.396,5.415,5.396h6.813c2.978,0,5.4-2.42,5.4-5.396v-3.425
C54.401,89.509,51.979,87.083,49.001,87.083L49.001,87.083z"/>
<path fill="#00A9E0" d="M49.001,118.037c1.871,0,3.4,1.552,3.4,3.434v3.37c0,1.862-1.529,3.409-3.4,3.409h-6.813
c-1.883,0-3.415-1.547-3.415-3.409v-3.37c0-1.882,1.532-3.434,3.415-3.434H49.001 M49.001,116.037h-6.813
c-2.986,0-5.415,2.438-5.415,5.434v3.37c0,2.982,2.429,5.409,5.415,5.409h6.813c2.978,0,5.4-2.427,5.4-5.409v-3.37
C54.401,118.475,51.979,116.037,49.001,116.037L49.001,116.037z"/>
<path fill="#00A9E0" d="M49.001,146.128c1.871,0,3.4,1.511,3.4,3.401v3.432c0,1.864-1.529,3.38-3.4,3.38h-6.813
c-1.883,0-3.415-1.516-3.415-3.38v-3.432c0-1.891,1.532-3.401,3.415-3.401H49.001 M49.001,144.128h-6.813
c-2.986,0-5.415,2.423-5.415,5.401v3.432c0,2.967,2.429,5.38,5.415,5.38h6.813c2.978,0,5.4-2.413,5.4-5.38v-3.432
C54.401,146.551,51.979,144.128,49.001,144.128L49.001,144.128z"/>
<path fill="#00A9E0" d="M104.333,195.259c-0.552,0-1-0.447-1-1v-6.411c0-0.553,0.448-1,1-1s1,0.447,1,1v6.411
C105.333,194.812,104.885,195.259,104.333,195.259z"/>
<path fill="#00A9E0" d="M119.667,195.259c-0.553,0-1-0.447-1-1v-6.411c0-0.553,0.447-1,1-1s1,0.447,1,1v6.411
C120.667,194.812,120.22,195.259,119.667,195.259z"/>
<path fill="#00A9E0" d="M207.359,206h-3.253V44.223c0-2.329-1.908-4.223-4.253-4.223H24.13c-2.336,0-4.236,1.895-4.236,4.223
v117.753c0,0.553,0.448,1,1,1s1-0.447,1-1V44.223c0-1.226,1.003-2.223,2.236-2.223h46.004v164H50.641c-0.552,0-1,0.447-1,1
s0.448,1,1,1h156.718c0.553,0,1-0.447,1-1S207.912,206,207.359,206z M202.106,44.223V206h-48.228V42h45.975
C201.117,42,202.106,42.977,202.106,44.223z M72.134,42h79.745v164h-13.767v-28.928c0-2.346-1.896-4.254-4.229-4.254H90.103
c-2.324,0-4.215,1.908-4.215,4.254V206H72.134V42z M113,174.818h20.884c1.229,0,2.229,1.011,2.229,2.254V206H113V174.818z M111,206
H87.888v-28.928c0-1.243,0.994-2.254,2.215-2.254H111V206z"/>
<path fill="#00A9E0" d="M127.502,34.997H96.511c-1.103,0-2-0.898-2-2.002V2.004c0-1.104,0.897-2.001,2-2.001h30.991
c1.103,0,2,0.897,2,2.001v30.991C129.502,34.099,128.604,34.997,127.502,34.997z M97.511,31.997h28.991V3.003H97.511V31.997z"/>
<path fill="#00A9E0" d="M149.928,34.997h-16.795c-1.103,0-2-0.898-2-2.002V2.005c0-1.103,0.897-2,2-2L149.912,0l0,0
c0.041,0,0.082,0.001,0.123,0.005c8.613,0.71,15.376,7.442,16.08,16.007c0.003,0.041,0.005,0.081,0.005,0.121l0.004,2.648
c0,0.041-0.002,0.082-0.005,0.123c-0.693,8.608-7.435,15.373-16.028,16.086c-0.021,0.002-0.043,0.003-0.065,0.004
C149.992,34.996,149.956,34.997,149.928,34.997z M134.133,31.997h15.748c7.085-0.606,12.643-6.179,13.243-13.274l-0.004-2.523
C162.513,9.15,156.945,3.613,149.849,3l-15.716,0.004V31.997z"/>
<path fill="#00B388" d="M74.09,35C74.089,35,74.089,35,74.09,35c-0.051,0-0.105-0.003-0.161-0.008v0
c-8.598-0.702-15.345-7.435-16.044-16.011c-0.003-0.04-0.005-0.08-0.005-0.12l-0.004-2.641c0-0.042,0.001-0.083,0.005-0.124
C58.582,7.476,65.313,0.71,73.889,0.011c0.041-0.003,0.081-0.005,0.122-0.005l16.865-0.002c1.09,0,1.987,0.889,2.001,1.981
c0.023,7.166,0.015,14.436,0.004,20.845l-0.007,10.165c0,1.104-0.899,2.002-2.004,2.002L74.09,35z M60.88,18.796
C61.484,25.864,67.053,31.409,74.148,32l15.726-0.003l0.007-9.169c0.01-6.109,0.019-13-0.001-19.824L74.073,3.006
C67.019,3.61,61.481,9.179,60.876,16.28L60.88,18.796z"/>
<path fill="#00B388" d="M85.926,22.533c-0.351,0.576-0.764,1.128-1.229,1.628c-0.584,0.636-1.254,1.184-1.984,1.636
c-0.735,0.468-1.547,0.814-2.407,1.064c-0.866,0.249-1.778,0.373-2.703,0.373c-1.344,0-2.622-0.25-3.795-0.762
c-1.186-0.51-2.227-1.211-3.096-2.082c-0.875-0.875-1.578-1.916-2.084-3.094c-0.509-1.188-0.769-2.464-0.769-3.797
c0-1.318,0.259-2.583,0.77-3.766c0.506-1.178,1.208-2.224,2.085-3.104c0.875-0.885,1.915-1.594,3.092-2.102
c1.175-0.508,2.457-0.763,3.797-0.763c0.896,0,1.785,0.12,2.63,0.364c0.838,0.235,1.63,0.583,2.354,1.017
c0.724,0.437,1.386,0.973,1.961,1.577c0.454,0.475,0.859,1,1.214,1.553c0.075,0.115,0.094,0.26,0.06,0.399
c-0.038,0.127-0.131,0.244-0.25,0.311l-0.524,0.28c-0.253,0.13-0.5,0.254-0.734,0.377l-0.781,0.39
c-0.192,0.095-0.416,0.207-0.693,0.342c-0.221,0.106-0.494,0.036-0.63-0.171c-0.449-0.661-1.041-1.208-1.771-1.64
c-0.854-0.512-1.812-0.762-2.844-0.762c-0.786,0-1.531,0.152-2.224,0.453c-0.688,0.307-1.296,0.719-1.813,1.226
c-0.518,0.507-0.932,1.118-1.223,1.813c-0.295,0.701-0.444,1.443-0.444,2.207c0,0.787,0.149,1.531,0.446,2.22
c0.294,0.69,0.705,1.298,1.223,1.815c0.519,0.514,1.129,0.932,1.814,1.23c0.695,0.282,1.436,0.438,2.226,0.438
c1.064,0,2.055-0.271,2.942-0.822c0.746-0.459,1.362-1.053,1.824-1.771c0.141-0.219,0.417-0.291,0.651-0.174l0.668,0.348
c0.284,0.139,0.535,0.278,0.765,0.406c0.239,0.125,0.473,0.25,0.729,0.374c0.146,0.077,0.323,0.156,0.532,0.262
c0.127,0.063,0.226,0.164,0.265,0.306C86.02,22.266,86.004,22.418,85.926,22.533"/>
<path fill="#00A9E0" d="M121.928,26.608c0,0.272-0.219,0.5-0.502,0.5h-2.563c-0.281,0-0.512-0.228-0.512-0.5V13.494l-4.652,13.271
c-0.063,0.201-0.251,0.343-0.469,0.343h-2.541c-0.208,0-0.404-0.14-0.468-0.343l-4.591-13.137c0.005,0.018-0.04,0-0.055,0v12.98
c0,0.272-0.227,0.5-0.502,0.5h-2.492c-0.279,0-0.507-0.228-0.507-0.5V8.4c0-0.276,0.228-0.5,0.507-0.5h4.621
c0.216,0,0.409,0.136,0.474,0.344l4.275,12.963l4.298-12.963c0.066-0.203,0.259-0.344,0.478-0.344h4.698
c0.283,0,0.502,0.224,0.502,0.5V26.608z"/>
<path fill="#00A9E0" d="M155.762,13.224c-0.44-1.18-1.053-2.176-1.83-2.959c-0.779-0.791-1.714-1.384-2.768-1.775
c-1.06-0.39-2.226-0.594-3.465-0.594h-7.773c-0.289,0-0.5,0.228-0.5,0.5v18.212c0,0.272,0.211,0.5,0.5,0.5h7.773
c1.467,0,2.75-0.25,3.84-0.75c1.081-0.488,1.992-1.168,2.717-2.03c0.719-0.854,1.27-1.884,1.628-3.063
c0.358-1.187,0.542-2.482,0.542-3.873C156.426,15.808,156.193,14.403,155.762,13.224 M151.801,20.484
c-0.273,0.734-0.637,1.334-1.082,1.784c-0.445,0.465-0.967,0.792-1.535,0.987c-0.57,0.197-1.172,0.294-1.775,0.294h-3.771V11.448
h3.016c1.033,0,1.922,0.146,2.626,0.442c0.7,0.293,1.279,0.729,1.71,1.279c0.426,0.552,0.738,1.226,0.928,2.006
c0.184,0.776,0.281,1.662,0.281,2.621C152.197,18.855,152.059,19.756,151.801,20.484"/>
<path fill="#F8485E" d="M24,170c12.131,0,22,9.869,22,22s-9.869,22-22,22s-22-9.869-22-22S11.869,170,24,170 M24,168
c-13.254,0-24,10.746-24,24s10.746,24,24,24s24-10.746,24-24S37.254,168,24,168L24,168z"/>
<path fill="#F8485E" d="M28.085,185.853c-0.429-0.643-0.982-1.152-1.661-1.526c-0.679-0.375-1.411-0.563-2.197-0.563
c-0.714,0-1.384,0.156-2.009,0.469s-1.143,0.736-1.554,1.271c-0.75,0.894-1.125,1.956-1.125,3.188v2.732
c0.571-0.714,1.272-1.276,2.103-1.688c0.83-0.41,1.709-0.616,2.638-0.616c0.821,0,1.616,0.156,2.384,0.469s1.447,0.746,2.036,1.299
c0.606,0.59,1.075,1.272,1.406,2.05c0.33,0.776,0.495,1.594,0.495,2.45c0,0.876-0.161,1.711-0.482,2.505
c-0.321,0.795-0.777,1.496-1.366,2.103c-0.572,0.607-1.259,1.081-2.063,1.42c-0.803,0.339-1.634,0.509-2.491,0.509
c-0.947,0-1.84-0.174-2.679-0.522c-0.84-0.348-1.563-0.844-2.17-1.486c-0.625-0.66-1.081-1.384-1.366-2.17
c-0.286-0.785-0.429-1.669-0.429-2.651v-6.402c0-1.981,0.625-3.598,1.875-4.848c0.607-0.643,1.321-1.129,2.143-1.46
c0.821-0.331,1.705-0.505,2.651-0.522c1.089,0,2.103,0.246,3.041,0.736c0.938,0.492,1.709,1.166,2.317,2.022L28.085,185.853z
M26.197,199.285c0.634-0.348,1.139-0.816,1.514-1.406c0.446-0.731,0.669-1.509,0.669-2.33c0-0.75-0.161-1.438-0.482-2.063
s-0.768-1.134-1.339-1.526c-0.75-0.5-1.572-0.75-2.464-0.75c-0.75,0-1.438,0.165-2.063,0.495c-0.625,0.331-1.134,0.79-1.527,1.38
c-0.482,0.732-0.723,1.535-0.723,2.41c0,0.696,0.151,1.34,0.456,1.929c0.303,0.589,0.714,1.081,1.232,1.474
c0.804,0.606,1.696,0.91,2.679,0.91C24.88,199.808,25.563,199.634,26.197,199.285z"/>
</svg>
