<svg xmlns="http://www.w3.org/2000/svg" width="224px" height="216px" viewBox="0 0 224 216">
<path fill="#00A9E0" d="M176.562,138.827c-0.018,0-0.036,0-0.054-0.001c-0.552-0.029-0.975-0.5-0.946-1.052l2.939-55.468
c-0.001-0.713,0.239-1.445,0.694-2.063c0.328-0.444,0.953-0.54,1.398-0.212c0.444,0.327,0.54,0.953,0.213,1.398
c-0.201,0.272-0.307,0.594-0.307,0.931l-2.94,55.521C177.531,138.413,177.09,138.827,176.562,138.827z"/>
<path fill="#00A9E0" d="M211.678,82.359c0-1.375-0.789-2.557-1.933-3.161c0.396-0.578,0.63-1.275,0.63-2.026V61.594
c0-1.988-1.612-3.606-3.594-3.606h-23.375c-0.488,0-0.963,0.097-1.409,0.287c-0.508,0.217-0.744,0.804-0.527,1.312
c0.217,0.508,0.805,0.746,1.313,0.528c0.196-0.084,0.406-0.126,0.624-0.126h23.375c0.879,0,1.594,0.72,1.594,1.606v2.453h-23.563
c-0.553,0-1,0.448-1,1s0.447,1,1,1h0.774c0.772,2.739,4.666,4.766,9.507,4.766s8.734-2.026,9.507-4.766h3.774v11.125
c0,0.879-0.715,1.594-1.594,1.594h-15.697c-0.553,0-1,0.448-1,1s0.447,1,1,1h15.697h1.281c0.891,0,1.615,0.715,1.616,1.647
L213.855,161h-37.521l0.267-5.038c0.029-0.552-0.395-1.022-0.946-1.052c-0.548-0.041-1.022,0.396-1.052,0.946l-0.415,7.862
c0,1.981,1.612,3.594,3.594,3.594h34.625c1.981,0,3.594-1.612,3.593-3.646L211.678,82.359z M195.094,68.813
c-3.673,0-6.439-1.315-7.341-2.766h14.682C201.533,67.497,198.767,68.813,195.094,68.813z M212.406,165.313h-34.625
c-0.879,0-1.594-0.715-1.595-1.541l0.041-0.771h37.734l0.038,0.719C214,164.598,213.285,165.313,212.406,165.313z"/>
<path fill="#00A9E0" d="M77.984,169.001c-0.552,0-1-0.447-1-1V145c0-0.553,0.448-1,1-1s1,0.447,1,1v23.001
C78.984,168.554,78.537,169.001,77.984,169.001z"/>
<path fill="#00A9E0" d="M146.093,104.28c-1.652-1.344-2.847-2.314-2.847-4.749c0-5.5,2.274-7.993,4.908-10.878
c3.458-3.788,7.377-8.081,7.377-19.614c0-0.213-0.002-0.426-0.006-0.639c-0.011-0.551-0.468-0.972-1.019-0.981
c-0.553,0.011-0.992,0.467-0.981,1.019c0.004,0.2,0.006,0.401,0.006,0.601c0,10.758-3.484,14.575-6.854,18.266
c-2.793,3.06-5.432,5.95-5.432,12.227c0,3.386,1.822,4.868,3.585,6.301c1.843,1.499,3.584,2.915,3.969,6.716
c-0.001,0.097-0.001,0.208-0.001,0.334c0.004,1.538,0.003,5.081-3.185,8.188h-44.53c-0.552,0-1,0.447-1,1s0.448,1,1,1h43.939V168
c0,0.553,0.447,1,1,1s1-0.447,1-1v-45.499c3.79-3.698,3.779-7.983,3.775-9.624l0.002-0.345c0.001-0.04-0.001-0.081-0.005-0.121
C150.343,107.736,147.986,105.82,146.093,104.28z"/>
<path fill="#00A9E0" d="M147.023,189.651v-8.984c0-0.553-0.447-1-1-1s-1,0.447-1,1v8.329H78.984v-8.162c0-0.553-0.448-1-1-1
s-1,0.447-1,1v8.817c-4.212,5.506-3.795,12.394-3.777,12.622c0,3.157,2.568,5.727,5.725,5.727h66.15
c3.153,0,5.719-2.569,5.717-5.658C150.818,202.046,151.236,195.157,147.023,189.651z M148.801,202.273
c0,2.055-1.668,3.727-3.719,3.727h-66.15c-2.054,0-3.725-1.672-3.727-3.794c-0.004-0.063-0.357-6.329,3.285-11.21h67.029
C149.161,195.877,148.808,202.144,148.801,202.273z"/>
<path fill="#00A9E0" d="M153.079,57.047c0.238-0.261,0.341-0.633,0.218-0.991c-2.668-7.756-7.544-14.982-14.101-20.897
c-0.41-0.369-1.042-0.337-1.412,0.073s-0.338,1.042,0.072,1.413c5.931,5.35,10.403,11.811,13.046,18.746H73.08
c2.574-6.785,6.988-13.219,12.95-18.633c0.409-0.371,0.439-1.004,0.068-1.413c-0.37-0.408-1.003-0.439-1.413-0.068
C78.105,41.252,73.33,48.436,70.731,56c-0.001,0.002-0.001,0.003-0.002,0.005c-1.467,4.273-2.247,8.666-2.247,13.034
c0,11.533,3.919,15.827,7.376,19.614c2.634,2.885,4.909,5.377,4.909,10.878c0,2.434-1.195,3.405-2.849,4.749
c-1.895,1.54-4.253,3.456-4.707,8.131c-0.004,0.039-0.005,0.077-0.005,0.116l0,0.33c-0.009,1.643-0.032,5.934,3.777,9.645V131
c0,0.553,0.448,1,1,1s1-0.447,1-1v-7.93h8.266c0.552,0,1-0.447,1-1s-0.448-1-1-1h-8.858c-3.202-3.118-3.193-6.664-3.185-8.202
l0-0.311c0.382-3.809,2.126-5.226,3.973-6.726c1.764-1.433,3.588-2.915,3.588-6.301c0-6.276-2.638-9.167-5.432-12.227
c-3.369-3.691-6.854-7.508-6.854-18.266c0-3.896,0.661-7.817,1.896-11.648h79.959c0.063,0,0.118-0.025,0.178-0.036
c0.055-0.009,0.108-0.009,0.161-0.027c0.005-0.002,0.009-0.006,0.014-0.008c0.073-0.028,0.134-0.072,0.197-0.116
c0.051-0.033,0.106-0.059,0.149-0.101C153.054,57.087,153.063,57.065,153.079,57.047z"/>
<path fill="#00A9E0" d="M122.453,9.048V3.836c0-2.115-1.721-3.836-3.836-3.836h-13.227c-2.115,0-3.836,1.721-3.836,3.836v5.215
c-1.125,0.669-1.889,1.885-1.889,3.287v2.836c0,2.096,1.69,3.799,3.777,3.83v2.139c0,0.552,0.448,1,1,1s1-0.448,1-1V19.01h13.115
v2.133c0,0.552,0.447,1,1,1s1-0.448,1-1v-2.138c2.093-0.026,3.789-1.732,3.789-3.831v-2.836
C124.348,10.934,123.581,9.717,122.453,9.048z M120.453,3.836v4.666h-2.266V2h0.43C119.63,2,120.453,2.824,120.453,3.836z
M107.813,8.502V2h1.453v6.502H107.813z M111.266,2h1.453v6.502h-1.453V2z M114.719,2h1.469v6.502h-1.469V2z M103.555,3.836
c0-1.012,0.824-1.836,1.836-1.836h0.422v6.502h-2.258V3.836z M122.348,15.174c0,1.012-0.823,1.836-1.836,1.836h-0.953h-15.115H103.5
c-1.011,0-1.834-0.824-1.834-1.836v-2.836c0-1.012,0.823-1.836,1.834-1.836h17.012c1.013,0,1.836,0.824,1.836,1.836V15.174z"/>
<path fill="#00A9E0" d="M112,170.781c-8.185,0-14.844-6.659-14.844-14.844s6.659-14.844,14.844-14.844
c8.185,0,14.844,6.659,14.844,14.844S120.185,170.781,112,170.781z M112,143.094c-7.082,0-12.844,5.762-12.844,12.844
s5.762,12.844,12.844,12.844s12.844-5.762,12.844-12.844S119.082,143.094,112,143.094z"/>
<path fill="#00A9E0" d="M112.001,139.625c-1.451,0-4.47,0-4.47-3.594c0-2.812,1.783-7.063,4.47-7.063
c2.686,0,4.468,4.251,4.468,7.063C116.469,139.625,113.451,139.625,112.001,139.625z M112.001,130.969
c-1.039,0-2.47,2.934-2.47,5.063c0,1.254,0.308,1.594,2.47,1.594c2.16,0,2.468-0.34,2.468-1.594
C114.469,133.902,113.039,130.969,112.001,130.969z"/>
<path fill="#00A9E0" d="M115.244,178.602c-0.076,0-0.154-0.009-0.231-0.027c-0.538-0.127-0.87-0.666-0.742-1.203
c0.13-0.548,0.198-1.076,0.198-1.527c0-1.254-0.308-1.594-2.468-1.594c-2.162,0-2.47,0.34-2.47,1.594
c0,0.432,0.063,0.934,0.18,1.453c0.123,0.539-0.215,1.074-0.754,1.197c-0.538,0.122-1.074-0.216-1.196-0.754
c-0.15-0.663-0.23-1.318-0.23-1.896c0-3.594,3.019-3.594,4.47-3.594c1.45,0,4.468,0,4.468,3.594c0,0.604-0.087,1.292-0.253,1.988
C116.107,178.292,115.696,178.602,115.244,178.602z"/>
<path fill="#00A9E0" d="M131.906,160.406c-3.594,0-3.594-3.018-3.594-4.468c0-1.451,0-4.47,3.594-4.47
c2.812,0,7.063,1.782,7.063,4.47C138.969,158.624,134.718,160.406,131.906,160.406z M131.906,153.469
c-1.254,0-1.594,0.308-1.594,2.47c0,2.16,0.34,2.468,1.594,2.468c2.298,0,5.063-1.516,5.063-2.468
C136.969,154.877,134.083,153.469,131.906,153.469z"/>
<path fill="#00A9E0" d="M92.094,160.406c-2.812,0-7.063-1.782-7.063-4.468c0-2.688,4.251-4.47,7.063-4.47
c3.594,0,3.594,3.019,3.594,4.47C95.688,157.389,95.688,160.406,92.094,160.406z M92.094,153.469c-2.176,0-5.063,1.408-5.063,2.47
c0,0.952,2.764,2.468,5.063,2.468c1.254,0,1.594-0.308,1.594-2.468C93.688,153.776,93.348,153.469,92.094,153.469z"/>
<path fill="#00A9E0" d="M93.128,150.03c-0.626,0-1.276-0.198-1.987-0.606c-2.433-1.422-5.216-5.096-3.883-7.402
c0.59-1.013,1.869-1.568,3.603-1.568c1.603,0,3.465,0.478,4.746,1.216c3.1,1.794,1.607,4.41,0.89,5.668
C95.911,148.348,94.937,150.03,93.128,150.03z M90.861,142.453c-0.95,0-1.667,0.219-1.873,0.572
c-0.47,0.813,1.168,3.507,3.155,4.668c1.1,0.628,1.503,0.573,2.62-1.353c1.07-1.875,0.929-2.313-0.156-2.94
C93.625,142.834,92.119,142.453,90.861,142.453z"/>
<path fill="#00A9E0" d="M133.174,171.405L133.174,171.405c-1.601,0-3.478-0.483-4.781-1.231c-1-0.574-1.593-1.262-1.813-2.103
c-0.33-1.27,0.316-2.501,0.949-3.557c0.563-0.987,1.525-2.672,3.342-2.672c0.626,0,1.275,0.198,1.986,0.606
c1.584,0.914,3.557,2.983,4.093,5.021c0.236,0.9,0.157,1.723-0.229,2.379C136.144,170.863,134.914,171.405,133.174,171.405z
M130.871,163.843c-0.478,0-0.916,0.456-1.616,1.683c-0.465,0.776-0.868,1.546-0.739,2.041c0.076,0.29,0.369,0.584,0.873,0.873
c1.007,0.577,2.527,0.966,3.785,0.966c0.924,0,1.62-0.214,1.816-0.559c0.146-0.248,0.094-0.607,0.025-0.867
c-0.332-1.263-1.777-3.002-3.156-3.797C131.468,163.958,131.135,163.843,130.871,163.843z"/>
<path fill="#00A9E0" d="M124.299,142.295c-1.016,0-1.999-0.519-2.841-1.004c-1.071-0.614-2.245-1.378-2.585-2.648
c-0.22-0.822-0.046-1.729,0.517-2.694c1.174-2.045,3.876-4.24,6.023-4.24c0.504,0,0.962,0.115,1.363,0.344
c0.657,0.377,1.131,1.049,1.372,1.943c0.551,2.042-0.124,4.829-1.038,6.415C126.385,141.661,125.439,142.295,124.299,142.295z
M125.413,133.708c-1.204,0-3.37,1.636-4.292,3.241c-0.288,0.494-0.393,0.888-0.315,1.177c0.135,0.503,0.872,0.985,1.649,1.432
c0.665,0.384,1.347,0.737,1.844,0.737c0.169,0,0.566,0,1.08-0.887c0.797-1.381,1.181-3.622,0.839-4.892
c-0.07-0.259-0.202-0.595-0.435-0.729C125.689,133.734,125.567,133.708,125.413,133.708z"/>
<path fill="#00A9E0" d="M103.175,177.256c-0.216,0-0.434-0.069-0.618-0.214c-0.434-0.341-0.509-0.97-0.168-1.404
c0.193-0.245,0.357-0.485,0.487-0.713c0.521-0.908,0.316-1.253,0.228-1.4c-0.251-0.422-0.896-0.829-1.555-1.208
c-0.735-0.424-1.558-0.862-2.069-0.727c-0.285,0.076-0.574,0.366-0.86,0.862c-0.397,0.692-0.713,1.645-0.866,2.61
c-0.086,0.546-0.598,0.92-1.145,0.83c-0.545-0.086-0.917-0.599-0.831-1.145c0.19-1.195,0.594-2.396,1.107-3.292
c0.569-0.988,1.248-1.576,2.076-1.798c1.25-0.34,2.456,0.273,3.584,0.925c0.832,0.478,1.764,1.06,2.275,1.917
c0.593,0.993,0.521,2.145-0.211,3.42c-0.178,0.311-0.396,0.632-0.65,0.954C103.764,177.125,103.471,177.256,103.175,177.256z"/>
<path fill="#00A9E0" d="M99.697,142.295c-1.138,0-2.082-0.634-2.806-1.883c-0.915-1.584-1.589-4.369-1.039-6.413
c0.241-0.896,0.715-1.57,1.372-1.946c0.401-0.229,0.859-0.346,1.362-0.346c2.147,0,4.851,2.195,6.028,4.246
c0.561,0.962,0.734,1.87,0.515,2.692c-0.34,1.271-1.511,2.032-2.582,2.646C101.694,141.777,100.702,142.295,99.697,142.295z
M98.585,133.707c-0.15,0-0.274,0.027-0.368,0.081c-0.232,0.133-0.365,0.471-0.435,0.73c-0.342,1.271,0.042,3.512,0.839,4.892
c0.513,0.885,0.907,0.885,1.075,0.885c0.492,0,1.183-0.355,1.856-0.739c0.772-0.443,1.508-0.924,1.643-1.427
c0.077-0.289-0.028-0.685-0.314-1.175C101.957,135.343,99.79,133.707,98.585,133.707z"/>
<path fill="#00A9E0" d="M121.014,177.486c-0.284,0-0.566-0.12-0.764-0.354c-0.343-0.404-0.633-0.813-0.862-1.213
c-1.79-3.12,0.818-4.618,2.072-5.338c1.063-0.621,2.31-1.258,3.568-0.926c0.833,0.222,1.515,0.81,2.084,1.799
c0.481,0.838,0.86,1.917,1.066,3.04c0.1,0.543-0.26,1.064-0.803,1.164c-0.542,0.105-1.064-0.26-1.164-0.803
c-0.164-0.892-0.468-1.769-0.833-2.404c-0.285-0.496-0.576-0.786-0.864-0.862c-0.498-0.135-1.278,0.271-2.052,0.723
c-1.87,1.074-1.966,1.521-1.34,2.612c0.17,0.296,0.389,0.604,0.652,0.915c0.357,0.422,0.305,1.053-0.116,1.409
C121.472,177.408,121.241,177.486,121.014,177.486z"/>
<path fill="#00A9E0" d="M130.872,150.031c-1.818,0-2.778-1.686-3.353-2.692c-0.624-1.059-1.271-2.309-0.936-3.576
c0.222-0.837,0.813-1.522,1.811-2.095c1.286-0.738,3.148-1.215,4.745-1.215c1.733,0,3.008,0.559,3.589,1.571
c0.377,0.631,0.459,1.443,0.229,2.334c-0.526,2.044-2.502,4.134-4.093,5.063C132.147,149.833,131.498,150.031,130.872,150.031z
M133.14,142.453c-1.254,0-2.76,0.382-3.749,0.949c-0.502,0.288-0.796,0.582-0.873,0.872c-0.131,0.497,0.274,1.284,0.732,2.062
c1.097,1.924,1.508,1.992,2.613,1.354c1.382-0.807,2.831-2.563,3.158-3.831c0.064-0.253,0.114-0.601-0.019-0.824
C134.793,142.671,134.083,142.453,133.14,142.453z"/>
<path fill="#00A9E0" d="M90.826,171.407c-1.741,0-2.974-0.54-3.566-1.562c-1.33-2.332,1.456-5.994,3.88-7.396
c0.713-0.409,1.362-0.607,1.988-0.607c1.809,0,2.783,1.683,3.366,2.688c0.616,1.06,1.246,2.297,0.912,3.556
c-0.222,0.834-0.809,1.517-1.795,2.087C94.31,170.923,92.433,171.407,90.826,171.407z M93.128,163.843
c-0.263,0-0.596,0.115-0.99,0.341c-1.875,1.084-3.67,3.744-3.145,4.665c0.198,0.342,0.902,0.559,1.833,0.559
c1.261,0,2.782-0.389,3.784-0.966c0.495-0.286,0.786-0.579,0.863-0.869c0.131-0.494-0.263-1.272-0.708-2.038
C94.041,164.285,93.613,163.843,93.128,163.843z"/>
<path fill="#00A9E0" d="M53.141,88.281h-10.25v-3.188h0.734c1.981,0,3.594-1.612,3.594-3.594v-9.666c0-0.552-0.448-1-1-1
s-1,0.448-1,1V81.5c0,0.879-0.715,1.594-1.594,1.594h-1.734c-0.552,0-1,0.448-1,1v5.188c0,0.552,0.448,1,1,1
c0.049,0,0.091-0.021,0.138-0.028c0.047,0.007,0.089,0.028,0.138,0.028h10.974c0.879,0,1.594,0.717,1.594,1.598v46.746
c0,0.879-0.715,1.594-1.594,1.594h-4.057c-0.552,0-1,0.447-1,1s0.448,1,1,1h4.057c1.981,0,3.594-1.612,3.594-3.594V91.879
C56.734,89.895,55.122,88.281,53.141,88.281z"/>
<path fill="#00A9E0" d="M32.375,76.438c0.552,0,1-0.448,1-1v-7.656H38c0.552,0,1-0.448,1-1s-0.448-1-1-1H21.121
c-1.988,0-3.605,1.612-3.605,3.594V81.5c0,1.981,1.617,3.594,3.605,3.594h0.723v3.188h-10.25C9.612,88.281,8,89.895,8,91.879v9.527
v27.688v9.531c0,1.981,1.612,3.594,3.594,3.594h25.573c0.552,0,1-0.447,1-1s-0.448-1-1-1H11.594c-0.879,0-1.594-0.715-1.594-1.594
v-8.531h15.446c1.985,0,3.601-1.612,3.601-3.594V104c0-1.981-1.615-3.594-3.601-3.594H10v-8.527c0-0.881,0.715-1.598,1.594-1.598H30
c0.552,0,1-0.448,1-1s-0.448-1-1-1h-6.156v-3.188h7.24c0.552,0,1-0.448,1-1s-0.448-1-1-1h-9.963c-0.885,0-1.605-0.715-1.605-1.594
V69.375c0-0.879,0.72-1.594,1.605-1.594h1.598v7.656c0,0.552,0.448,1,1,1s1-0.448,1-1v-7.656h2.328v7.656c0,0.552,0.448,1,1,1
s1-0.448,1-1v-7.656h2.328v7.656C31.375,75.99,31.823,76.438,32.375,76.438z M25.446,102.406c0.883,0,1.601,0.715,1.601,1.594v22.5
c0,0.879-0.718,1.594-1.601,1.594H10v-25.688H25.446z"/>
<path fill="#F8485E" d="M112,183.906c-21.919,0-41.803-8.87-56.254-23.212c-0.083-0.061-0.162-0.128-0.237-0.203
c-0.075-0.075-0.143-0.154-0.203-0.237C40.967,145.804,32.097,125.917,32.097,104c0-44.06,35.844-79.904,79.903-79.904
c21.92,0,41.806,8.871,56.257,23.212c0.082,0.06,0.16,0.127,0.234,0.201c0.074,0.074,0.142,0.152,0.201,0.234
c14.342,14.451,23.214,34.337,23.214,56.257C191.906,148.061,156.061,183.906,112,183.906z M59.785,159.043
C73.4,171.967,91.791,179.906,112,179.906c41.854,0,75.906-34.052,75.906-75.906c0-20.209-7.939-38.6-20.862-52.215L59.785,159.043z
M112,28.096c-41.853,0-75.903,34.05-75.903,75.904c0,20.21,7.938,38.599,20.86,52.215L164.215,48.956
C150.6,36.034,132.21,28.096,112,28.096z"/>
<path fill="#F8485E" d="M24,170c12.131,0,22,9.869,22,22s-9.869,22-22,22s-22-9.869-22-22S11.869,170,24,170 M24,168
c-13.254,0-24,10.748-24,24c0,13.254,10.746,24,24,24s24-10.746,24-24C48,178.748,37.254,168,24,168L24,168z"/>
<path fill="#F8485E" d="M25.487,182.264v19.286h-1.982v-17.089l-3.643,2.196v-2.224l3.643-2.17H25.487z"/>
</svg>
