<svg xmlns="http://www.w3.org/2000/svg" width="224px" height="216px" viewBox="0 0 224 216">
<path fill="#00A9E0" d="M133.067,195.649c-0.423,0-0.814-0.27-0.951-0.692c-0.17-0.526,0.118-1.09,0.644-1.259
c2.322-0.75,4.346-1.603,5.944-2.495h-2.983c-0.765,0.302-1.607,0.591-2.507,0.861c-0.537,0.155-1.088-0.143-1.246-0.67
c-0.158-0.529,0.142-1.087,0.67-1.246c0.914-0.274,1.761-0.567,2.518-0.873c0.119-0.048,0.246-0.072,0.374-0.072h6.355
c0.413,0,0.783,0.254,0.933,0.639s0.046,0.822-0.259,1.101c-1.881,1.715-5.057,3.326-9.184,4.658
C133.272,195.634,133.169,195.649,133.067,195.649z"/>
<path fill="#00A9E0" d="M117.231,208c-18.519,0-32.066-4.594-40.267-13.653c-7.389-8.161-10.371-19.963-8.864-35.077
c2.197-21.879,15.851-37.234,26.822-49.574c5.294-5.954,9.866-11.096,12.363-15.989c5.957-11.678,2.521-82.656,2.485-83.372
c-0.014-0.283,0.093-0.56,0.295-0.759l9.36-9.285c0.188-0.186,0.44-0.29,0.704-0.29h8.761c0.264,0,0.518,0.104,0.704,0.29
l9.354,9.285c0.206,0.205,0.313,0.488,0.294,0.777c-0.015,0.219-1.497,22.141-3.647,43.614c-0.055,0.55-0.532,0.953-1.095,0.896
c-0.55-0.055-0.95-0.545-0.896-1.095c1.976-19.729,3.387-39.84,3.61-43.094L128.479,2h-7.937l-8.752,8.682
c0.318,6.64,3.286,72.153-2.724,83.934c-2.614,5.122-7.265,10.352-12.65,16.409c-10.779,12.123-24.195,27.211-26.327,48.444
c-1.449,14.527,1.363,25.811,8.356,33.536C86.252,201.628,99.302,206,117.231,206c13.32,0,23.13-4.448,32.421-14.797h-3.157
c-4.833,5.718-24.804,14.256-37.022,7.62c-0.401-0.218-0.604-0.679-0.493-1.121s0.505-0.754,0.961-0.758
c1.711-0.015,3.417-0.073,5.07-0.172c0.548-0.023,1.025,0.387,1.058,0.938c0.031,0.519-0.34,0.97-0.844,1.048
c11.559,2.306,27.027-5.126,29.98-9.147c0.188-0.257,0.487-0.408,0.806-0.408h5.836c0.389,0,0.743,0.226,0.907,0.578
c0.164,0.354,0.108,0.77-0.143,1.066C142.47,202.87,131.889,208,117.231,208z"/>
<path fill="#00A9E0" d="M105.021,192.929c-0.077,0-0.156-0.009-0.234-0.027c-8.36-2.004-14.586-6.195-18.005-12.121
c-3.989-6.914-4.307-16.158-0.944-27.476c4.792-12.001,13.154-21.214,21.242-30.123c8.381-9.233,16.298-17.955,20.488-29.398
c1.701-4.644,3.49-15.197,5.174-30.518c0.061-0.549,0.543-0.946,1.104-0.885c0.549,0.061,0.945,0.554,0.885,1.104
c-1.187,10.793-3.066,24.931-5.283,30.986c-4.325,11.811-12.744,21.086-20.886,30.055c-7.968,8.778-16.208,17.855-20.835,29.436
c-3.17,10.685-2.916,19.4,0.789,25.819c3.183,5.517,8.815,9.276,16.739,11.176c0.537,0.129,0.868,0.669,0.74,1.206
C105.883,192.62,105.473,192.929,105.021,192.929z"/>
<path fill="#F8485E" d="M145.649,178.918c-0.131-0.536-0.674-0.868-1.208-0.735c-3.632,0.883-4.932,2.183-6.308,3.56
c-0.718,0.719-1.46,1.462-2.634,2.242c-2.814,1.872-4.308,2.035-5.965,1.333c0.369-0.702,0.691-1.413,0.964-2.114
c2.862-0.782,3.741-1.704,4.995-3.063c0.222-0.24,0.46-0.498,0.73-0.777c1.622-1.674,3.154-3.254,7.146-4.794
c0.515-0.198,0.771-0.777,0.572-1.293c-0.198-0.515-0.774-0.771-1.293-0.572c-4.085,1.576-5.834,3.177-7.86,5.267
c-0.283,0.292-0.532,0.563-0.765,0.813c-0.922,0.999-1.472,1.593-2.818,2.107c0.144-0.667,0.224-1.299,0.224-1.87
c0-0.275-0.012-0.552-0.026-0.827c2.547-0.813,3.262-3.03,3.702-4.413c0.065-0.207,0.128-0.403,0.192-0.583
c0.209-0.578,0.314-1.276,0.438-2.084c0.237-1.564,0.533-3.513,1.692-5.725c0.257-0.488,0.067-1.093-0.422-1.35
c-0.487-0.255-1.094-0.068-1.35,0.422c-1.315,2.509-1.652,4.73-1.898,6.353c-0.106,0.704-0.199,1.312-0.341,1.705
c-0.073,0.201-0.144,0.422-0.218,0.654c-0.375,1.179-0.776,2.381-2.044,2.965c-0.843-4.338-3.737-8.188-9.877-8.188
c-6.139,0-9.033,3.848-9.876,8.185c-1.263-0.586-1.663-1.785-2.037-2.963c-0.074-0.232-0.144-0.452-0.217-0.653
c-0.142-0.394-0.234-1.002-0.341-1.707c-0.247-1.621-0.584-3.843-1.898-6.351c-0.256-0.49-0.86-0.68-1.35-0.422
c-0.489,0.257-0.678,0.86-0.421,1.35c1.159,2.212,1.455,4.159,1.692,5.724c0.123,0.809,0.229,1.507,0.438,2.085
c0.064,0.179,0.126,0.374,0.192,0.581c0.44,1.383,1.153,3.599,3.695,4.412c-0.015,0.277-0.026,0.555-0.026,0.83
c0,0.57,0.08,1.201,0.223,1.867c-1.34-0.515-1.89-1.107-2.811-2.105c-0.231-0.25-0.48-0.521-0.763-0.813
c-2.025-2.089-3.775-3.69-7.861-5.267c-0.513-0.198-1.094,0.058-1.293,0.572c-0.199,0.516,0.058,1.095,0.573,1.293
c3.992,1.541,5.523,3.121,7.145,4.793c0.271,0.279,0.509,0.538,0.73,0.777c1.253,1.357,2.131,2.28,4.987,3.063
c0.272,0.702,0.596,1.415,0.966,2.118c-1.654,0.7-3.146,0.535-5.958-1.335c-1.174-0.781-1.917-1.524-2.635-2.242
c-1.376-1.377-2.675-2.677-6.306-3.56c-0.534-0.131-1.077,0.198-1.208,0.735c-0.13,0.537,0.199,1.077,0.735,1.208
c3.086,0.75,4.091,1.756,5.364,3.029c0.75,0.752,1.602,1.603,2.942,2.495c2.077,1.38,3.732,2.05,5.335,2.05
c0.913,0,1.81-0.223,2.756-0.649c0.482,0.738,1.007,1.439,1.565,2.083c-0.469,0.288-1.056,0.317-1.923,0.325
c-1.458,0.012-3.454,0.028-4.942,2.435c-1.038,1.677-2.207,2.67-3.474,2.95c-1.441,0.314-2.556-0.39-2.618-0.429
c-0.456-0.307-1.073-0.187-1.384,0.268c-0.311,0.456-0.193,1.078,0.264,1.389c0.061,0.042,1.276,0.854,2.996,0.854
c0.356,0,0.734-0.035,1.128-0.119c1.832-0.389,3.443-1.688,4.787-3.859c0.909-1.468,1.895-1.477,3.259-1.487
c1.037-0.01,2.272-0.034,3.33-0.896c0.172,0.149,0.344,0.302,0.52,0.437c-0.021,0.161-0.04,0.322-0.04,0.486
c0,1.078,0.463,2.045,1.193,2.731c-0.167,0.7-0.273,1.462-0.273,1.868c0,1.152,0.808,1.989,1.921,1.989
c0.342,0,0.649-0.087,0.92-0.23c0.27,0.144,0.577,0.23,0.919,0.23c1.112,0,1.92-0.837,1.92-1.989c0-0.405-0.109-1.173-0.273-1.867
c0.73-0.687,1.194-1.653,1.194-2.732c0-0.164-0.02-0.325-0.04-0.485c0.157-0.12,0.31-0.258,0.464-0.39
c0.526,0.573,1.052,1.001,1.5,1.356c1.116,0.887,1.789,1.421,1.789,3.716c0,0.553,0.447,1,1,1s1-0.447,1-1
c0-3.26-1.294-4.288-2.545-5.281c-0.439-0.35-0.89-0.711-1.325-1.197c0.583-0.662,1.128-1.39,1.628-2.157
c0.949,0.429,1.848,0.652,2.762,0.652c1.604,0,3.261-0.67,5.337-2.05c1.34-0.892,2.19-1.743,2.941-2.494
c1.272-1.274,2.278-2.28,5.365-3.03C145.45,179.995,145.78,179.455,145.649,178.918z M121.278,169.95
c7.357,0,8.151,6.343,8.151,9.07c0,1.762-0.853,4.09-2.092,6.189c-0.015,0.022-0.037,0.036-0.051,0.06
c-0.012,0.021-0.012,0.046-0.021,0.068c-0.413,0.688-0.868,1.346-1.348,1.952c0.628-1.776,0.959-3.561,0.959-4.543
c0-3.087-2.512-5.599-5.599-5.599c-3.088,0-5.601,2.512-5.601,5.599c0,0.981,0.331,2.765,0.958,4.539
c-0.473-0.598-0.922-1.246-1.331-1.925c-0.013-0.03-0.013-0.063-0.029-0.092c-0.018-0.032-0.048-0.051-0.068-0.079
c-0.567-0.965-1.049-1.974-1.406-2.957c-0.02-0.136-0.064-0.266-0.135-0.381c-0.338-1.016-0.539-1.989-0.539-2.832
c0-0.401,0.021-0.888,0.074-1.415c0.002-0.008,0.008-0.015,0.009-0.023c0.002-0.014-0.003-0.025-0.002-0.039
C113.529,174.493,115.047,169.95,121.278,169.95z M117.678,182.747c0-1.984,1.615-3.599,3.601-3.599
c1.984,0,3.599,1.614,3.599,3.599c0,2.733-2.115,7.739-3.599,7.739S117.678,185.48,117.678,182.747z M121.278,193.245
c-0.728,0-1.353-0.442-1.621-1.072c0.539,0.192,1.082,0.313,1.621,0.313s1.081-0.121,1.62-0.313
C122.63,192.803,122.005,193.245,121.278,193.245z"/>
<path fill="#F8485E" d="M105.246,58.421c-0.069,0-0.14-0.007-0.21-0.022c-9.375-2.003-14.753-5.37-14.753-9.239
c0-3.864,5.367-7.229,14.725-9.233c0.544-0.113,1.072,0.229,1.188,0.769c0.115,0.54-0.229,1.072-0.769,1.188
c-7.984,1.709-13.144,4.566-13.144,7.277c0,2.715,5.17,5.574,13.171,7.283c0.54,0.115,0.884,0.647,0.769,1.187
C106.122,58.1,105.707,58.421,105.246,58.421z"/>
<path fill="#F8485E" d="M156.282,49.161c0-3.916-5.485-7.306-15.049-9.301c-0.541-0.113-1.071,0.234-1.183,0.775
c-0.113,0.541,0.233,1.07,0.774,1.183c8.175,1.706,13.457,4.588,13.457,7.343c0,4.255-12.118,8.649-32.54,8.978l4.242-4.182
c0.394-0.388,0.397-1.021,0.01-1.414c-0.389-0.394-1.021-0.397-1.414-0.01l-6,5.916c-0.001,0-0.001,0.002-0.002,0.002
c-0.097,0.096-0.171,0.213-0.222,0.343c-0.046,0.115-0.073,0.237-0.074,0.363c0,0,0,0.001,0,0.002c0,0,0,0.001,0,0.001
c0,0.043,0.02,0.08,0.024,0.121c0.012,0.09,0.019,0.18,0.053,0.263c0.051,0.122,0.124,0.231,0.217,0.323l5.999,6
c0.195,0.195,0.451,0.293,0.707,0.293s0.512-0.098,0.707-0.293c0.391-0.39,0.391-1.023,0-1.414l-4.313-4.314
C142.172,59.82,156.282,55.397,156.282,49.161z"/>
<path fill="#F8485E" d="M24,170c12.131,0,22,9.869,22,22s-9.869,22-22,22s-22-9.869-22-22S11.869,170,24,170 M24,168
c-13.254,0-24,10.748-24,24c0,13.254,10.746,24,24,24s24-10.746,24-24C48,178.748,37.254,168,24,168L24,168z"/>
<path fill="#F8485E" d="M29.371,193.111c0.285,0.768,0.429,1.58,0.429,2.438c0,1.054-0.188,2.022-0.563,2.906
s-0.938,1.611-1.688,2.183c-0.536,0.429-1.157,0.75-1.862,0.965c-0.706,0.214-1.433,0.321-2.183,0.321
c-0.679,0-1.344-0.107-1.996-0.321c-0.652-0.215-1.246-0.526-1.781-0.938c-0.482-0.357-0.902-0.79-1.259-1.299
c-0.357-0.51-0.625-1.059-0.804-1.647l1.875-0.563c0.286,0.875,0.759,1.563,1.42,2.063c0.768,0.554,1.661,0.83,2.678,0.83
c1.036-0.035,1.911-0.33,2.625-0.884c1-0.786,1.5-1.955,1.5-3.509c0-0.679-0.111-1.309-0.334-1.889
c-0.224-0.58-0.559-1.075-1.004-1.486c-0.768-0.661-1.714-0.991-2.839-0.991c-0.714,0-1.429,0.179-2.143,0.535l-0.991-1.553
l6.429-6.107h-8.438v-1.902h11.143v1.956l-5.679,5.384c1.661-0.036,3.054,0.482,4.179,1.554
C28.657,191.691,29.085,192.344,29.371,193.111z"/>
</svg>
