<svg xmlns="http://www.w3.org/2000/svg" width="224px" height="216px" viewBox="0 0 224 216">
<path fill="#00A9E0" d="M94.033,137.147c-1.292-5.742-5.5-10.452-11.057-12.345c-2.813-0.963-5.816-1.157-8.75-0.568
c-1.684-6.306-6.45-11.442-12.644-13.544c-6.121-2.072-12.762-1.026-17.932,2.782c-2.012-1.677-4.301-2.963-6.817-3.828
c-11.185-3.798-23.38,2.211-27.186,13.4c-2.098,6.178-1.234,13.034,2.297,18.523c-1.486,1.418-2.605,3.166-3.261,5.102
c-1.1,3.231-0.874,6.697,0.636,9.761c1.509,3.061,4.119,5.349,7.347,6.442c0.57,0.194,1.164,0.345,1.767,0.447
c0.548,0.086,1.061-0.275,1.153-0.819s-0.274-1.061-0.818-1.153c-0.498-0.084-0.988-0.208-1.458-0.368
c-2.723-0.923-4.924-2.853-6.196-5.434c-1.273-2.583-1.464-5.507-0.536-8.232c0.522-1.541,1.409-2.927,2.561-4.085
c2.553,3.235,5.947,5.648,9.9,6.991c0.106,0.036,0.215,0.053,0.321,0.053c0.417,0,0.806-0.262,0.947-0.679
c0.178-0.522-0.103-1.091-0.625-1.269c-3.908-1.326-7.223-3.796-9.59-7.14c-0.006-0.008-0.006-0.018-0.012-0.026
c-3.578-5.084-4.527-11.615-2.538-17.471c3.452-10.145,14.512-15.596,24.646-12.151c2.524,0.868,4.797,2.203,6.757,3.97
c0.364,0.329,0.913,0.344,1.296,0.036c4.722-3.793,10.965-4.901,16.701-2.958c5.557,1.885,9.829,6.495,11.344,12.153
c-5.06,1.64-9.049,5.555-10.776,10.643c-0.178,0.522,0.103,1.091,0.625,1.269c0.106,0.036,0.215,0.053,0.321,0.053
c0.417,0,0.806-0.262,0.947-0.679c1.616-4.758,5.474-8.354,10.322-9.624c0.005-0.001,0.01,0,0.015-0.001
c2.862-0.75,5.832-0.647,8.59,0.297c5.005,1.705,8.769,6.003,9.821,11.216c0.047,0.236,0.18,0.448,0.372,0.596
c8.235,6.314,11.524,17.169,8.185,27.009c-3.858,11.354-15.33,18.073-27.014,16.057c0.038-0.105,0.09-0.209,0.125-0.314
c2.661-7.844-1.552-16.402-9.391-19.079c-0.525-0.183-1.091,0.101-1.27,0.623c-0.179,0.522,0.101,1.091,0.623,1.27
c6.798,2.321,10.451,9.742,8.144,16.543c-0.146,0.431-0.321,0.866-0.517,1.292c-0.003,0.006-0.008,0.01-0.011,0.016
c-2.814,6.044-9.696,8.974-16,6.824c-0.526-0.183-1.092,0.102-1.27,0.623c-0.179,0.522,0.101,1.091,0.623,1.27
c1.61,0.55,3.25,0.812,4.867,0.812c5.437,0,10.584-2.97,13.238-7.971c12.822,2.466,25.513-4.868,29.745-17.32
C106.177,155.625,102.733,144.016,94.033,137.147z"/>
<path fill="#00A9E0" d="M212.688,55.479l-66.513-38.413c-0.37-0.212-0.892-0.307-1.689-0.307c-6.596,0-33.946,6.869-37.737,7.829
l-8.521-4.919l0.436-0.755c0.886-1.532,1.122-3.317,0.664-5.026c-0.458-1.708-1.553-3.134-3.084-4.016L85.752,3.813l0.504-0.873
c0.276-0.478,0.112-1.09-0.366-1.366c-0.478-0.276-1.09-0.112-1.366,0.366L84.02,2.813L81.643,1.44
c-1.006-0.581-2.149-0.888-3.306-0.888c-2.358,0-4.558,1.267-5.741,3.308L50.115,42.797c-0.887,1.53-1.124,3.314-0.667,5.024
c0.457,1.708,1.551,3.138,3.082,4.024l2.382,1.375l-0.502,0.87c-0.276,0.478-0.112,1.09,0.366,1.366
c0.157,0.091,0.33,0.134,0.499,0.134c0.346,0,0.682-0.179,0.867-0.5l0.502-0.87l6.376,3.681L62.52,58.77
c-0.276,0.478-0.113,1.09,0.366,1.366c0.157,0.091,0.33,0.134,0.499,0.134c0.346,0,0.682-0.179,0.867-0.5l0.501-0.868l2.383,1.376
c1.005,0.58,2.147,0.886,3.303,0.886c2.361,0,4.562-1.269,5.743-3.312l0.436-0.754l8.517,4.917
c3.15,11.194,10.48,36.338,13.192,37.905l66.522,38.412c1.003,0.581,2.145,0.889,3.3,0.889h0.001c2.361,0,4.561-1.271,5.74-3.317
l41.228-71.38C216.935,61.36,215.845,57.302,212.688,55.479z M201.085,51.092l-17.298,29.964c-0.82,1.422-2.352,2.305-3.996,2.305
c-0.808,0-1.607-0.216-2.313-0.625l-42.183-24.359c-1.065-0.612-1.828-1.603-2.147-2.79c-0.321-1.193-0.158-2.44,0.461-3.512
l17.288-29.964L201.085,51.092z M53.531,50.113c-1.068-0.618-1.832-1.615-2.151-2.808c-0.318-1.193-0.153-2.438,0.467-3.507
L74.328,4.862c0.826-1.424,2.362-2.309,4.009-2.309c0.806,0,1.603,0.214,2.306,0.62l2.377,1.373L55.913,51.488L53.531,50.113z
M74.45,56.851c-0.825,1.426-2.362,2.313-4.011,2.313c-0.805,0-1.602-0.214-2.303-0.618l-2.383-1.375l22.923-39.692
c0.276-0.478,0.112-1.09-0.366-1.366c-0.479-0.278-1.09-0.113-1.366,0.366L64.021,56.17l-6.376-3.682L84.752,5.546l10.492,6.059
c1.068,0.615,1.832,1.609,2.151,2.8c0.319,1.192,0.155,2.438-0.464,3.507l-2.604,4.51L75.382,55.228
c-0.004,0.007-0.004,0.015-0.007,0.021L74.45,56.851z M213.385,63.524l-41.227,71.379c-0.824,1.429-2.359,2.316-4.009,2.316
c-0.804,0-1.599-0.215-2.299-0.62L99.365,98.212c-1.818-1.529-8.483-23.06-12.415-37.13c-0.07-0.252-0.237-0.467-0.463-0.598
l-8.869-5.12l18.823-32.603l0.786-1.361l8.873,5.123c0.226,0.13,0.493,0.167,0.747,0.103c0.309-0.079,30.947-7.868,37.638-7.868
c0.528,0,0.716,0.057,0.694,0.042l3.988,2.304l-17.292,29.971c-0.886,1.534-1.12,3.321-0.66,5.031
c0.459,1.704,1.554,3.126,3.081,4.003l42.179,24.357c1.01,0.585,2.156,0.894,3.315,0.894c2.357,0,4.553-1.267,5.729-3.306
l17.3-29.967l8.868,5.122C213.892,58.484,214.652,61.317,213.385,63.524z"/>
<path fill="#00A9E0" d="M53.969,95.405c-5.352,0-9.705-4.354-9.705-9.707c0-4.992,8.456-21.515,8.815-22.216
c0.171-0.333,0.515-0.543,0.89-0.543l0,0c0.375,0,0.718,0.21,0.89,0.543c0.36,0.701,8.814,17.224,8.814,22.216
C63.673,91.051,59.32,95.405,53.969,95.405z M53.969,66.159c-2.762,5.558-7.705,16.197-7.705,19.539c0,4.25,3.457,7.707,7.705,7.707
c4.248,0,7.704-3.458,7.704-7.707C61.673,82.355,56.73,71.716,53.969,66.159z"/>
<path fill="#F8485E" d="M24,170c12.131,0,22,9.869,22,22s-9.869,22-22,22s-22-9.869-22-22S11.869,170,24,170 M24,168
c-13.253,0-24,10.748-24,24c0,13.254,10.747,24,24,24s24-10.746,24-24C48,178.748,37.253,168,24,168L24,168z"/>
<path fill="#F8485E" d="M29.679,195.925v1.901h-2.116v3.724H25.58v-3.724h-8.974v-1.901l6.456-13.661h2.089l-6.455,13.661h6.884
V190.3h1.982v5.625H29.679z"/>
</svg>
