<svg xmlns="http://www.w3.org/2000/svg" width="616px" height="516px" viewBox="0 0 616 516">
<path fill="#F0F0F0" d="M610.057,319.931c-48.862-10.045-60.699-29.139-75.015-45.558c-24.69-28.323-88.816-70.003-132.966-41.916
c-8.102-13.11-17.499-24.806-27.834-34.711c18.831-26.125,56.494-37.16,66.858-90.88c7.547-39.141-7.529-79.333-37.757-105.046
c-6.985-5.952-17.161,4.139-10.14,10.129c42.535,36.175,51.539,102.263,1.202,146.501c-10.889,9.576-22.305,18.362-30.997,29.857
c-5.107-4.037-10.383-7.661-15.79-10.824c2.14-11.852-1.089-23.802-8.684-32.913c5.164-25.496,1.793-71.838-18.409-71.838
c-5.322,0-9.425,3.192-12.541,8.285c-3.107-5.092-7.219-8.285-12.538-8.285c-20.31,0-23.521,46.661-18.418,71.838
c-7.576,9.083-10.824,21.009-8.679,32.913c-5.412,3.164-10.688,6.778-15.794,10.815c-19.347-25.638-50.256-35.588-61.896-76.94
c-10.335-36.724,3.45-75.04,32.106-99.418c7.026-5.989-3.141-16.072-10.129-10.129c-30.223,25.703-45.305,65.896-37.752,105.046
c10.326,53.514,48.229,65.042,66.858,90.881c-10.332,9.899-19.723,21.61-27.82,34.71c-34.297-21.821-76.996-2.286-107.558,19.343
c-40.479,28.655-35.076,54.706-100.423,68.14c-9.125,1.868-6.182,15.818,2.835,13.986c56.292-11.414,65.106-32.893,88.9-56.531
c24.731-24.577,75.142-55.56,109.228-32.574c-5.632,10.814-10.419,22.389-14.17,34.583c-60.202,12.88-73.805,74.696-167.032,111.75
c-3.652,1.445-5.37,5.65-3.807,9.256c1.798,4.13,5.905,5.323,9.19,3.998c91.515-36.536,105.779-91.95,157.307-108.95
c-4.154,17.497-6.078,34.227-5.806,49.922c-39.32,14.213-50.899,60.287-57.447,97.734c-3.624,20.746-6.914,44.187-19.747,61.601
c-5.487,7.463,5.905,15.931,11.42,8.289c32.532-45.022,13.865-128.854,66.712-152.528c16.399,145.385,232.04,144.792,248.844-0.075
c53.095,23.619,34.058,107.224,66.857,152.604c5.511,7.642,16.879-0.845,11.415-8.289c-12.832-17.433-16.127-40.854-19.751-61.601
c-6.553-37.484-18.155-83.578-57.536-97.763c0.31-15.704-1.576-32.415-5.717-49.913c51.237,16.916,66.069,72.547,157.297,108.97
c8.73,3.493,13.922-9.856,5.388-13.254c-93.227-37.044-106.819-98.87-167.04-111.75c-3.737-12.194-8.543-23.769-14.176-34.583
c34.096-22.995,84.488,7.998,109.233,32.574c23.787,23.657,32.612,45.107,88.891,56.531
C616.252,335.758,619.172,321.808,610.057,319.931z M320.546,91.691c4.646,11.219,5.144,29.637,3.802,41.822
c-2.507-1.113-5.144-1.99-7.886-2.572C315.101,115,317.27,99.572,320.546,91.691z M295.467,91.691
c2.896,6.984,5.558,21.751,4.079,39.25c-2.75,0.582-5.384,1.459-7.896,2.572C290.299,121.155,290.834,102.858,295.467,91.691z
M332.148,169.852c-8.317-3.356-15.668-5.238-24.144-6.51c-8.486,1.272-15.832,3.164-24.149,6.51
C284.46,138.648,331.529,138.427,332.148,169.852z M308.004,185.022c0.038,0.019,0.085,0.037,0.132,0.056
c0.037-0.019,0.075-0.038,0.13-0.056c46.544,22.328,74.894,114.932,25.834,146.792c-13.029,8.6-29.039,10.768-43.121,6.178
C230.919,319.142,255.481,210.213,308.004,185.022z M241.071,432.571c-75.701-54.345-40.192-190.825,29.097-237.345
c-0.019,0.023-0.038,0.042-0.047,0.07c0.028-0.019,0.056-0.047,0.094-0.07c-34.269,41.483-48.599,129.708,10.411,155.691
c19.582,8.421,42.886,7.163,61.765-3.313c52.673-30.294,36.132-112.829,3.444-152.388c0.038,0.023,0.075,0.051,0.095,0.08
c-0.02-0.019-0.038-0.047-0.057-0.08c39.634,26.608,64.708,75.354,70.106,123.606C431.994,449.553,306.465,479.519,241.071,432.571z"/>
</svg>
