<svg xmlns="http://www.w3.org/2000/svg" width="64px" height="64px" viewBox="0 0 64 64">
<path fill="#F8485E" d="M63.422,38.441c-5.083-1.044-6.314-3.031-7.804-4.739c-2.568-2.946-9.239-7.282-13.832-4.36
c-0.843-1.364-1.82-2.581-2.895-3.611c1.959-2.718,5.877-3.866,6.955-9.454c0.785-4.072-0.784-8.253-3.928-10.928
c-0.727-0.619-1.785,0.431-1.054,1.054c4.424,3.763,5.361,10.638,0.124,15.24c-1.133,0.996-2.32,1.91-3.224,3.106
c-0.531-0.42-1.08-0.797-1.643-1.126c0.223-1.233-0.113-2.476-0.903-3.424c0.537-2.652,0.186-7.473-1.916-7.473
c-0.553,0-0.98,0.332-1.304,0.862c-0.323-0.53-0.751-0.862-1.304-0.862c-2.113,0-2.447,4.854-1.916,7.473
c-0.788,0.945-1.126,2.186-0.903,3.424c-0.563,0.329-1.112,0.705-1.643,1.125c-2.013-2.667-5.228-3.702-6.439-8.004
c-1.075-3.82,0.359-7.806,3.34-10.342c0.731-0.623-0.327-1.672-1.054-1.054c-3.144,2.674-4.713,6.855-3.927,10.928
c1.074,5.567,5.017,6.766,6.955,9.454c-1.075,1.03-2.052,2.248-2.894,3.611c-3.568-2.27-8.01-0.238-11.189,2.012
c-4.211,2.981-3.649,5.691-10.447,7.088c-0.949,0.195-0.643,1.646,0.295,1.456c5.856-1.188,6.773-3.422,9.248-5.881
c2.573-2.557,7.817-5.78,11.363-3.389c-0.586,1.125-1.084,2.329-1.474,3.597c-6.263,1.341-7.678,7.771-17.376,11.626
c-0.38,0.15-0.559,0.587-0.396,0.962c0.187,0.43,0.614,0.554,0.956,0.417c9.52-3.801,11.004-9.566,16.364-11.335
c-0.432,1.821-0.632,3.561-0.604,5.194c-4.09,1.479-5.295,6.271-5.976,10.167c-0.377,2.158-0.719,4.596-2.054,6.408
c-0.571,0.776,0.614,1.657,1.188,0.863c3.384-4.684,1.442-13.405,6.94-15.868c1.706,15.124,24.139,15.062,25.886-0.007
c5.524,2.457,3.544,11.153,6.955,15.875c0.574,0.795,1.757-0.089,1.188-0.863c-1.335-1.813-1.678-4.25-2.055-6.408
c-0.681-3.899-1.888-8.695-5.985-10.17c0.032-1.634-0.164-3.372-0.595-5.192c5.331,1.76,6.873,7.547,16.364,11.336
c0.908,0.363,1.448-1.026,0.56-1.379c-9.698-3.854-11.112-10.285-17.377-11.626c-0.389-1.268-0.888-2.472-1.474-3.597
c3.546-2.392,8.789,0.832,11.363,3.389c2.475,2.46,3.393,4.692,9.247,5.881C64.066,40.088,64.37,38.637,63.422,38.441z
M33.304,14.698c0.484,1.167,0.536,3.083,0.396,4.351c-0.261-0.116-0.535-0.207-0.82-0.268
C32.739,17.123,32.964,15.518,33.304,14.698z M30.696,14.698c0.301,0.727,0.578,2.263,0.424,4.083
c-0.286,0.061-0.56,0.152-0.821,0.268C30.158,17.763,30.214,15.86,30.696,14.698z M34.512,22.829
c-0.866-0.349-1.63-0.545-2.512-0.677c-0.883,0.132-1.647,0.329-2.512,0.677C29.551,19.583,34.448,19.56,34.512,22.829z M32,24.407
c0.004,0.002,0.009,0.004,0.013,0.006c0.005-0.002,0.009-0.004,0.014-0.006c4.842,2.323,7.792,11.956,2.688,15.271
c-1.355,0.894-3.021,1.12-4.486,0.642C23.981,38.36,26.536,27.028,32,24.407z M25.037,50.159c-7.875-5.653-4.181-19.851,3.027-24.69
c-0.002,0.002-0.004,0.004-0.005,0.007c0.003-0.002,0.006-0.005,0.01-0.007c-3.565,4.315-5.056,13.493,1.083,16.196
c2.037,0.876,4.462,0.745,6.425-0.344c5.479-3.152,3.759-11.738,0.358-15.853c0.004,0.002,0.008,0.005,0.011,0.008
c-0.002-0.002-0.004-0.005-0.006-0.008c4.123,2.768,6.731,7.839,7.293,12.858C44.898,51.926,31.84,55.043,25.037,50.159z"/>
</svg>
