<svg xmlns="http://www.w3.org/2000/svg" width="40" height="40"><ellipse fill="#CB369B" cx="19.962" cy="19.925" rx="3.32" ry="3.31"/><path fill="#CB369B" d="M25.32 15.789c-.68 0-1.207-.526-1.207-1.203 0-.676.527-1.203 1.207-1.203s1.208.526 1.208 1.203a1.19 1.19 0 01-1.208 1.203zm-5.358 9.248a5.127 5.127 0 01-5.132-5.112c0-2.857 2.34-5.113 5.132-5.113 2.793 0 5.207 2.255 5.207 5.113 0 2.856-2.339 5.112-5.207 5.112zm4.151-13.232H15.81c-1.207 0-2.264.376-2.942 1.052s-1.057 1.729-1.057 2.932v8.271c0 1.204.378 2.256 1.132 3.008.755.677 1.735 1.053 2.943 1.053h8.227c1.207 0 2.264-.376 2.943-1.053.754-.676 1.132-1.729 1.132-2.933v-8.27c0-1.203-.378-2.181-1.056-2.932-.755-.752-1.736-1.128-3.019-1.128z"/><path fill="#CB369B" d="M20 0C8.943 0 0 8.944 0 20c0 11.057 8.943 20 20 20s20-8.943 20-20c.08-11.056-8.943-20-20-20zm10 24.135c0 1.73-.604 3.233-1.661 4.286C27.283 29.474 25.773 30 24.113 30h-8.227c-1.66 0-3.17-.526-4.227-1.579C10.528 27.368 10 25.865 10 24.135v-8.27C10 12.405 12.34 10 15.887 10h8.302c1.735 0 3.171.601 4.227 1.654S30 14.135 30 15.865v8.27z"/></svg>