<svg xmlns="http://www.w3.org/2000/svg" width="46" height="66"><path fill="#00A9E0" d="M45 23.296c0 16.958-21.998 41.269-21.998 41.269S1 39.69 1 23.296C1 11.221 10.85 1.435 23.002 1.435 35.149 1.435 45 11.221 45 23.296"/><path fill="#94E5FF" d="M23.002 65.564h-.006a.998.998 0 01-.743-.338C21.344 64.2 0 39.879 0 23.296 0 10.69 10.319.435 23.002.435 35.684.435 46 10.69 46 23.296c0 17.146-21.348 40.936-22.256 41.939a1 1 0 01-.742.329zm0-63.129C11.421 2.435 2 11.793 2 23.296c0 14.143 17.196 35.239 21.01 39.743C26.839 58.606 44 37.919 44 23.296c0-11.503-9.42-20.861-20.998-20.861z"/><path fill="#FFF" d="M16.53 18.142a.153.153 0 00-.156-.152l-5.29.004c-2.449.196-4.382 2.13-4.584 4.611l.006.821a4.976 4.976 0 004.595 4.586c0 .003.015.003.016.003l5.252-.003c.097 0 .161-.065.161-.154v-3.183c.008-2.005.017-4.293 0-6.533zm-1.707 6.445a2.977 2.977 0 01-.387.5 2.617 2.617 0 01-.615.516 3.305 3.305 0 01-.754.338 3.017 3.017 0 01-.854.113 3.043 3.043 0 01-2.159-.886 2.954 2.954 0 01-.649-.968c-.159-.371-.239-.772-.239-1.191s.081-.818.239-1.186a3 3 0 01.649-.974c.274-.273.597-.499.967-.66a2.978 2.978 0 011.192-.242c.29 0 .564.049.822.116.273.077.515.19.741.319.226.145.435.306.612.499.145.146.274.307.387.483a.152.152 0 01.016.129c-.01.034-.032.08-.081.097l-.161.082c-.081.047-.156.081-.226.128l-.242.112-.226.113a.153.153 0 01-.193-.049 1.653 1.653 0 00-.554-.516 1.725 1.725 0 00-.896-.241c-.242 0-.483.048-.693.145a1.932 1.932 0 00-.568.383 1.487 1.487 0 00-.383.568 1.68 1.68 0 00-.145.692c0 .242.048.479.145.693.085.21.217.402.383.563.165.161.352.292.568.387.209.097.451.146.693.146a1.778 1.778 0 001.499-.822c.048-.064.129-.083.209-.048l.208.112c.083.035.163.081.235.122.073.039.153.073.234.12.042.016.097.048.161.08a.136.136 0 01.081.097.13.13 0 01-.016.13zm13.027-6.599h-9.708c-.08 0-.16.073-.16.153v9.717c0 .089.08.154.16.154h9.708c.098 0 .162-.065.162-.154v-9.717a.156.156 0 00-.162-.153zm-1.741 7.872a.16.16 0 01-.16.161h-.807a.172.172 0 01-.16-.161v-4.109l-1.451 4.157c-.021.064-.066.113-.147.113h-.795a.156.156 0 01-.145-.113l-1.436-4.121c.001.013-.015 0-.022 0v4.073c0 .082-.074.161-.154.161h-.79a.171.171 0 01-.16-.161v-5.704a.16.16 0 01.16-.161h1.45c.065 0 .129.048.15.109l1.341 4.063 1.354-4.063c.014-.062.064-.109.144-.109h1.468c.096 0 .16.064.16.161v5.704zm9.121-4.214a1.237 1.237 0 00-.549-.397 2.043 2.043 0 00-.806-.143h-.965v3.798h1.191c.193 0 .387-.031.549-.092.193-.064.354-.169.482-.307.15-.145.258-.338.355-.563a3.11 3.11 0 00.122-.847c0-.297-.026-.571-.091-.819a1.713 1.713 0 00-.288-.63z"/><path fill="#FFF" d="M39.496 22.573a5.023 5.023 0 00-4.62-4.589l-5.253.005a.158.158 0 00-.162.152v9.717c0 .089.069.154.162.154h5.27l.016-.001c2.449-.192 4.383-2.133 4.592-4.601l-.005-.837zm-2.74 1.612c-.107.37-.271.692-.497.967a2.32 2.32 0 01-.868.628c-.322.161-.74.242-1.191.242h-2.45a.168.168 0 01-.162-.161v-5.704c0-.097.075-.161.162-.161h2.449c.387 0 .74.064 1.084.181.334.125.623.318.861.561.246.241.439.562.568.929.143.368.225.812.225 1.311a3.97 3.97 0 01-.181 1.207z"/></svg>