<svg xmlns="http://www.w3.org/2000/svg" width="40" height="40"><path fill="#EE8208" d="M20 12.333c-1.267 0-2.333 1.066-2.333 2.333S18.733 17 20 17s2.333-1.067 2.333-2.333-1.066-2.334-2.333-2.334z"/><path fill="#EE8208" d="M20 0C8.917 0 0 8.917 0 20c0 11.084 8.917 20 20 20 11.084 0 20-8.916 20-20C40 8.917 31.084 0 20 0zm0 10c2.6 0 4.667 2.067 4.667 4.667 0 2.6-2.067 4.667-4.667 4.667a4.639 4.639 0 01-4.667-4.667C15.333 12.067 17.4 10 20 10zm5.333 12.467C24.533 22.934 22 24 22 24l2.8 3.6s.533.667.533 1.067c0 .733-.6 1.333-1.333 1.333-.667 0-1-.467-1-.467L20 26l-3.067 3.533s-.333.467-1 .467c-.733 0-1.333-.6-1.333-1.333 0-.467.533-1.067.533-1.067L18 24s-2.533-1.066-3.333-1.533C14.4 22.333 14 22 14 21.333 14 20.6 14.6 20 15.333 20c.667 0 2 1.333 4.667 1.333S24 20 24.667 20C25.4 20 26 20.6 26 21.333c0 .667-.4.934-.667 1.134z"/></svg>