<svg xmlns="http://www.w3.org/2000/svg" width="40" height="40"><path fill="#4A76A8" d="M20 0C8.955 0 0 8.955 0 20c0 11.046 8.955 20 20 20 11.046 0 20-8.954 20-20C40 8.955 31.046 0 20 0zm7.85 23.369c1.682 1.556 2.031 2.318 2.088 2.412.7 1.156-.769 1.244-.769 1.244l-2.807.037s-.6.119-1.394-.425c-1.05-.726-2.044-2.594-2.813-2.351-.781.244-.756 1.932-.756 1.932s.006.356-.176.55c-.193.206-.575.25-.575.25h-1.256s-2.769.169-5.225-2.362c-2.663-2.769-5.013-8.269-5.013-8.269s-.131-.363.013-.538c.168-.194.619-.207.619-.207l3-.019s.281.044.487.194c.169.119.263.35.263.35s.481 1.225 1.125 2.337c1.25 2.163 1.837 2.637 2.262 2.406.625-.337.438-3.063.438-3.063s.013-.994-.313-1.431c-.25-.338-.725-.444-.931-.469-.168-.019.113-.413.469-.588.544-.269 1.5-.281 2.625-.269.881.006 1.131.063 1.475.144 1.031.25.682 1.219.682 3.531 0 .744-.138 1.781.399 2.131.231.144.794.019 2.2-2.369.669-1.131 1.169-2.462 1.169-2.462s.112-.238.281-.337c.175-.1.406-.069.406-.069l3.162-.019s.944-.119 1.101.313c.162.45-.351 1.5-1.645 3.219-2.116 2.828-2.347 2.565-.591 4.197z"/></svg>