<svg xmlns="http://www.w3.org/2000/svg" width="40" height="40"><path fill="#EB443E" d="M22.931 19.568l-4.051-2.931a.558.558 0 00-.518 0 .476.476 0 00-.259.432v5.861c0 .174.087.346.259.431.086.087.173.087.258.087.087 0 .174 0 .26-.087l4.051-2.93c.174-.087.26-.259.174-.432a.67.67 0 00-.174-.431z"/><path fill="#EB443E" d="M20 0C8.955 0 0 8.955 0 20c0 11.046 8.955 20 20 20 11.046 0 20-8.954 20-20C40 8.955 31.046 0 20 0zm9.655 24.741c-.086.087-.086.173-.086.259v.087a1.865 1.865 0 01-1.811 1.293h.173s-3.448.517-7.932.517c-4.568 0-7.931-.517-7.931-.517h.172a1.866 1.866 0 01-1.81-1.293V25c-.087-.086-.087-.172-.087-.259C10.259 23.88 10 22.069 10 20c0-2.069.259-3.879.345-4.741.087-.086.087-.172.087-.259v-.086c.258-.776.948-1.293 1.81-1.293h-.172s3.448-.518 7.931-.518c4.568 0 7.932.518 7.932.518h-.173c.862 0 1.553.517 1.811 1.293V15c.086.087.086.172.086.259.17.862.343 2.672.343 4.741 0 2.069-.259 3.88-.345 4.741z"/></svg>